<svg width="16" height="17" viewBox="0 0 16 17" fill="none" xmlns="http://www.w3.org/2000/svg">
<path d="M2.75 9.75H13.25V15C13.25 15.6904 12.6904 16.25 12 16.25H4C3.30964 16.25 2.75 15.6904 2.75 15V9.75Z" stroke="#FF701F" stroke-width="1.5"/>
<rect x="0.75" y="5.75" width="14.5" height="3.5" rx="1.25" stroke="#FF701F" stroke-width="1.5"/>
<path d="M8.16066 5.57614C7.78336 5.61869 7.28241 5.6628 6.75651 5.6748C6.21169 5.68722 5.66768 5.66437 5.2161 5.58091C4.73461 5.49193 4.49724 5.35856 4.41228 5.26446C3.66489 4.43677 3.72999 3.15993 4.55768 2.41254C5.38537 1.66516 6.66222 1.73026 7.4096 2.55795C7.56118 2.72582 7.70848 3.01066 7.83171 3.4085C7.95175 3.79606 8.0322 4.2352 8.08454 4.66034C8.12606 4.99771 8.14862 5.31559 8.16066 5.57614Z" stroke="#FF701F" stroke-width="1.5"/>
<path d="M8.29919 5.5761C8.67595 5.61866 9.17631 5.6628 9.70164 5.6748C10.2456 5.68722 10.7888 5.66437 11.2398 5.58094C11.7205 5.492 11.9577 5.3587 12.0428 5.26446C12.7902 4.43677 12.7251 3.15992 11.8974 2.41254C11.0697 1.66516 9.79286 1.73026 9.04548 2.55795C8.89416 2.72552 8.74724 3.01 8.62458 3.40767C8.50509 3.79504 8.42534 4.23403 8.37374 4.6591C8.33271 4.99699 8.31073 5.31534 8.29919 5.5761Z" stroke="#FF701F" stroke-width="1.5"/>
<path d="M8 5.42822L8 16.3068" stroke="#FF701F" stroke-width="1.5"/>
</svg>
