<svg width="14" height="14" viewBox="0 0 14 14" fill="none" xmlns="http://www.w3.org/2000/svg">
<path d="M12.8333 9.7375L9.83442 10.4853L7.02275 9.90434L4.14401 10.4853L1.16667 9.734V9.33325C1.16667 8.86912 1.35105 8.424 1.67923 8.09582C2.00742 7.76763 2.45254 7.58325 2.91667 7.58325H11.0833C11.5475 7.58325 11.9926 7.76763 12.3208 8.09582C12.649 8.424 12.8333 8.86912 12.8333 9.33325V9.7375ZM12.8333 10.9409V13.4166H1.16667V10.9374L4.11659 11.6812L7.02042 11.0955L9.85484 11.6812L12.8333 10.9409ZM5.25 5.83325H8.75V6.99992H5.25V5.83325ZM7 5.48325C6.53588 5.48325 6.09076 5.29888 5.76257 4.97069C5.43438 4.6425 5.25 4.19738 5.25 3.73325C5.25 3.08867 5.83334 2.03867 7 0.583252C8.16667 2.03867 8.75 3.08867 8.75 3.73325C8.75 4.19738 8.56563 4.6425 8.23744 4.97069C7.90925 5.29888 7.46413 5.48325 7 5.48325Z" fill="white"/>
</svg>
