<svg width="60" height="60" viewBox="0 0 60 60" fill="none" xmlns="http://www.w3.org/2000/svg">
<circle cx="30" cy="30" r="30" fill="url(#paint0_linear_5_78)"/>
<circle cx="30" cy="30" r="29" stroke="white" stroke-opacity="0.3" stroke-width="2"/>
<g filter="url(#filter0_d_5_78)">
<path d="M31.2 24.6C31.2 23.7333 31.0293 22.875 30.6976 22.0743C30.3659 21.2735 29.8798 20.546 29.2669 19.9331C28.654 19.3202 27.9265 18.8341 27.1257 18.5024C26.325 18.1707 25.4667 18 24.6 18C23.7333 18 22.875 18.1707 22.0743 18.5024C21.2735 18.8341 20.546 19.3202 19.9331 19.9331C19.3202 20.546 18.8341 21.2735 18.5024 22.0743C18.1707 22.875 18 23.7333 18 24.6C18 26.3504 18.6954 28.0292 19.9331 29.2669C21.1708 30.5046 22.8496 31.2 24.6 31.2C26.3504 31.2 28.0292 30.5046 29.2669 29.2669C30.5046 28.0292 31.2 26.3504 31.2 24.6V24.6ZM25.2 25.2L25.2012 28.2048C25.2012 28.3639 25.138 28.5165 25.0255 28.6291C24.9129 28.7416 24.7603 28.8048 24.6012 28.8048C24.4421 28.8048 24.2895 28.7416 24.1769 28.6291C24.0644 28.5165 24.0012 28.3639 24.0012 28.2048V25.2H20.9952C20.8361 25.2 20.6835 25.1368 20.5709 25.0243C20.4584 24.9117 20.3952 24.7591 20.3952 24.6C20.3952 24.4409 20.4584 24.2883 20.5709 24.1757C20.6835 24.0632 20.8361 24 20.9952 24H24V21C24 20.8409 24.0632 20.6883 24.1757 20.5757C24.2883 20.4632 24.4409 20.4 24.6 20.4C24.7591 20.4 24.9117 20.4632 25.0243 20.5757C25.1368 20.6883 25.2 20.8409 25.2 21V24H28.2036C28.3627 24 28.5153 24.0632 28.6279 24.1757C28.7404 24.2883 28.8036 24.4409 28.8036 24.6C28.8036 24.7591 28.7404 24.9117 28.6279 25.0243C28.5153 25.1368 28.3627 25.2 28.2036 25.2H25.2012H25.2ZM24.6 32.4C25.999 32.4002 27.3724 32.024 28.5761 31.311C29.7798 30.598 30.7696 29.5744 31.4418 28.3474C32.1139 27.1204 32.4437 25.7352 32.3965 24.337C32.3493 22.9387 31.9269 21.5789 31.1736 20.4H38.1C39.1343 20.4 40.1263 20.8109 40.8577 21.5423C41.5891 22.2737 42 23.2657 42 24.3V32.4H36.3C35.2657 32.4 34.2737 32.8109 33.5423 33.5423C32.8109 34.2737 32.4 35.2657 32.4 36.3V42H24.3C23.2657 42 22.2737 41.5891 21.5423 40.8577C20.8109 40.1263 20.4 39.1343 20.4 38.1V31.1736C21.6535 31.9766 23.1114 32.4023 24.6 32.4ZM41.472 34.2L34.2 41.472V36.3C34.2 35.1408 35.1408 34.2 36.3 34.2H41.472Z" fill="white"/>
</g>
<defs>
<filter id="filter0_d_5_78" x="14" y="18" width="32" height="32" filterUnits="userSpaceOnUse" color-interpolation-filters="sRGB">
<feFlood flood-opacity="0" result="BackgroundImageFix"/>
<feColorMatrix in="SourceAlpha" type="matrix" values="0 0 0 0 0 0 0 0 0 0 0 0 0 0 0 0 0 0 127 0" result="hardAlpha"/>
<feOffset dy="4"/>
<feGaussianBlur stdDeviation="2"/>
<feComposite in2="hardAlpha" operator="out"/>
<feColorMatrix type="matrix" values="0 0 0 0 0 0 0 0 0 0 0 0 0 0 0 0 0 0 0.25 0"/>
<feBlend mode="normal" in2="BackgroundImageFix" result="effect1_dropShadow_5_78"/>
<feBlend mode="normal" in="SourceGraphic" in2="effect1_dropShadow_5_78" result="shape"/>
</filter>
<linearGradient id="paint0_linear_5_78" x1="30" y1="0" x2="30" y2="60" gradientUnits="userSpaceOnUse">
<stop stop-color="#44BBFE"/>
<stop offset="1" stop-color="#1E78FE"/>
</linearGradient>
</defs>
</svg>
