<svg width="14" height="15" viewBox="0 0 14 15" fill="none" xmlns="http://www.w3.org/2000/svg">
<path d="M7.7 4.03333C7.7 3.50367 7.60042 2.97919 7.40694 2.48984C7.21346 2.0005 6.92987 1.55587 6.57236 1.18134C6.21486 0.806806 5.79043 0.509713 5.32333 0.307019C4.85623 0.104325 4.35559 0 3.85 0C3.34441 0 2.84377 0.104325 2.37667 0.307019C1.90957 0.509713 1.48514 0.806806 1.12764 1.18134C0.770133 1.55587 0.486544 2.0005 0.293064 2.48984C0.0995832 2.97919 -7.53387e-09 3.50367 0 4.03333C1.52153e-08 5.10304 0.405624 6.12893 1.12764 6.88533C1.84965 7.64173 2.82892 8.06667 3.85 8.06667C4.87108 8.06667 5.85035 7.64173 6.57236 6.88533C7.29438 6.12893 7.7 5.10304 7.7 4.03333ZM4.2 4.4L4.2007 6.23627C4.2007 6.33351 4.16383 6.42678 4.09819 6.49554C4.03255 6.5643 3.94353 6.60293 3.8507 6.60293C3.75787 6.60293 3.66885 6.5643 3.60321 6.49554C3.53757 6.42678 3.5007 6.33351 3.5007 6.23627V4.4H1.7472C1.65437 4.4 1.56535 4.36137 1.49971 4.29261C1.43407 4.22384 1.3972 4.13058 1.3972 4.03333C1.3972 3.93609 1.43407 3.84282 1.49971 3.77406C1.56535 3.7053 1.65437 3.66667 1.7472 3.66667H3.5V1.83333C3.5 1.73609 3.53688 1.64282 3.60251 1.57406C3.66815 1.5053 3.75717 1.46667 3.85 1.46667C3.94283 1.46667 4.03185 1.5053 4.09749 1.57406C4.16313 1.64282 4.2 1.73609 4.2 1.83333V3.66667H5.9521C6.04493 3.66667 6.13395 3.7053 6.19959 3.77406C6.26522 3.84282 6.3021 3.93609 6.3021 4.03333C6.3021 4.13058 6.26522 4.22384 6.19959 4.29261C6.13395 4.36137 6.04493 4.4 5.9521 4.4H4.2ZM3.85 8.8C4.66611 8.8001 5.46722 8.57025 6.16939 8.13453C6.87156 7.6988 7.44894 7.07325 7.84103 6.32342C8.23311 5.57358 8.42548 4.72707 8.39795 3.87259C8.37043 3.01811 8.12404 2.18711 7.6846 1.46667H11.725C12.3284 1.46667 12.907 1.71777 13.3337 2.16473C13.7603 2.61169 14 3.2179 14 3.85V8.8H10.675C10.0716 8.8 9.49298 9.0511 9.06633 9.49806C8.63969 9.94502 8.4 10.5512 8.4 11.1833V14.6667H3.675C3.07163 14.6667 2.49298 14.4156 2.06633 13.9686C1.63969 13.5216 1.4 12.9154 1.4 12.2833V8.05053C2.1312 8.54125 2.98164 8.8014 3.85 8.8ZM13.692 9.9L9.45 14.344V11.1833C9.45 10.4749 9.9988 9.9 10.675 9.9H13.692Z" fill="white"/>
</svg>
