<svg width="17" height="18" viewBox="0 0 17 18" fill="none" xmlns="http://www.w3.org/2000/svg">
<path d="M10.3846 0.692308C10.3846 0.309957 10.6946 0 11.0769 0C11.4593 0 11.7692 0.309957 11.7692 0.692308V3.46154C11.7692 3.84389 11.4593 4.15385 11.0769 4.15385C10.6946 4.15385 10.3846 3.84389 10.3846 3.46154V0.692308Z" fill="#212135"/>
<path d="M9.69231 1.40846C9.25722 1.39209 8.79616 1.38462 8.30769 1.38462C7.81923 1.38462 7.35816 1.39209 6.92308 1.40846V3.46154C6.92308 4.22624 6.30316 4.84615 5.53846 4.84615C4.77376 4.84615 4.15385 4.22624 4.15385 3.46154V1.71391C1.72544 2.24496 0.62823 3.5114 0.213273 6.16218C0.149856 6.5673 0.472446 6.92308 0.882494 6.92308H15.7329C16.1429 6.92308 16.4655 6.5673 16.4021 6.16218C15.9872 3.5114 14.8899 2.24496 12.4615 1.71391V3.46154C12.4615 4.22624 11.8416 4.84615 11.0769 4.84615C10.3122 4.84615 9.69231 4.22624 9.69231 3.46154V1.40846Z" fill="#212135"/>
<path fill-rule="evenodd" clip-rule="evenodd" d="M8.30769 18C1.46631 18 0 16.5337 0 9.69231C0 9.44602 0.00190022 9.20671 0.00588301 8.97418C0.0122574 8.60201 0.318372 8.30769 0.690593 8.30769H15.9248C16.297 8.30769 16.6031 8.60201 16.6095 8.97418C16.6135 9.20671 16.6154 9.44602 16.6154 9.69231C16.6154 16.5337 15.1491 18 8.30769 18ZM3.46154 11.0769C3.46154 10.6946 3.7715 10.3846 4.15385 10.3846H6.23077C6.61312 10.3846 6.92308 10.6946 6.92308 11.0769C6.92308 11.4593 6.61312 11.7692 6.23077 11.7692H4.15385C3.7715 11.7692 3.46154 11.4593 3.46154 11.0769ZM4.15385 13.1538C3.7715 13.1538 3.46154 13.4638 3.46154 13.8462C3.46154 14.2285 3.7715 14.5385 4.15385 14.5385H6.23077C6.61312 14.5385 6.92308 14.2285 6.92308 13.8462C6.92308 13.4638 6.61312 13.1538 6.23077 13.1538H4.15385ZM9.69231 11.0769C9.69231 10.6946 10.0023 10.3846 10.3846 10.3846H12.4615C12.8439 10.3846 13.1538 10.6946 13.1538 11.0769C13.1538 11.4593 12.8439 11.7692 12.4615 11.7692H10.3846C10.0023 11.7692 9.69231 11.4593 9.69231 11.0769ZM10.3846 13.1538C10.0023 13.1538 9.69231 13.4638 9.69231 13.8462C9.69231 14.2285 10.0023 14.5385 10.3846 14.5385H12.4615C12.8439 14.5385 13.1538 14.2285 13.1538 13.8462C13.1538 13.4638 12.8439 13.1538 12.4615 13.1538H10.3846Z" fill="#212135"/>
<path d="M4.84615 0.692308C4.84615 0.309957 5.15611 0 5.53846 0C5.92081 0 6.23077 0.309957 6.23077 0.692308V3.46154C6.23077 3.84389 5.92081 4.15385 5.53846 4.15385C5.15611 4.15385 4.84615 3.84389 4.84615 3.46154V0.692308Z" fill="#212135"/>
</svg>
