<svg width="60" height="60" viewBox="0 0 60 60" fill="none" xmlns="http://www.w3.org/2000/svg">
<circle cx="30" cy="30" r="30" fill="url(#paint0_linear_5_54)"/>
<circle cx="30" cy="30" r="29" stroke="white" stroke-opacity="0.3" stroke-width="2"/>
<g filter="url(#filter0_d_5_54)">
<path fill-rule="evenodd" clip-rule="evenodd" d="M42 30C42 20.118 39.882 18 30 18C20.118 18 18 20.118 18 30C18 39.882 20.118 42 30 42C39.882 42 42 39.882 42 30ZM35 39C35.5523 39 36 38.5523 36 38C36 37.4477 35.5523 37 35 37L25 37C24.4477 37 24 37.4477 24 38C24 38.5523 24.4477 39 25 39L35 39ZM30 20.9998C30.5931 20.9998 30.8899 20.9998 31.1236 21.0958C31.2776 21.159 31.4177 21.2519 31.5358 21.3693C31.6539 21.4866 31.7478 21.6261 31.812 21.7798C31.8714 21.9206 31.8941 22.0848 31.9036 22.3248C31.9077 22.4982 31.956 22.6677 32.0438 22.8172C32.1317 22.9667 32.2562 23.0913 32.4057 23.1793C32.5581 23.2642 32.7295 23.3091 32.9039 23.31C33.0784 23.3109 33.2502 23.2677 33.4035 23.1844C33.617 23.072 33.7717 23.0101 33.9246 22.9899C34.2589 22.946 34.5971 23.0359 34.8656 23.24C35.0656 23.3928 35.213 23.646 35.5075 24.1516L35.511 24.1577C35.8079 24.6673 35.9557 24.9225 35.9891 25.1713C36.0109 25.336 35.9999 25.5033 35.9566 25.6636C35.9134 25.824 35.8388 25.9741 35.7371 26.1055C35.643 26.2267 35.511 26.3284 35.3064 26.4566C35.0058 26.6436 34.8125 26.9631 34.8125 27.3156C34.8125 27.668 35.0058 27.9876 35.307 28.1751C35.511 28.3027 35.643 28.4044 35.7365 28.5257C35.8382 28.6569 35.913 28.8071 35.9563 28.9674C35.9997 29.1278 36.0108 29.2951 35.9891 29.4598C35.9557 29.7092 35.8079 29.9638 35.511 30.4735C35.2148 30.9831 35.0664 31.2383 34.8656 31.3911C34.5978 31.5951 34.2593 31.6855 33.9246 31.6412C33.7717 31.621 33.617 31.5591 33.4035 31.4467C33.2503 31.3636 33.0786 31.3204 32.9043 31.3213C32.7299 31.3222 32.5587 31.3671 32.4063 31.4518C32.0987 31.628 31.9162 31.9539 31.9036 32.3063C31.8941 32.5463 31.8714 32.7105 31.812 32.8513C31.6823 33.1616 31.4347 33.4076 31.1236 33.5353C30.8899 33.6313 30.5931 33.6313 30 33.6313C29.407 33.6313 29.1102 33.6313 28.8765 33.5353C28.5645 33.4071 28.3169 33.1608 28.1881 32.8513C28.1287 32.7105 28.106 32.5463 28.0965 32.3063C28.0832 31.9539 27.9014 31.6286 27.5944 31.4518C27.442 31.367 27.2706 31.322 27.0961 31.3211C26.9217 31.3203 26.7498 31.3635 26.5965 31.4467C26.3831 31.5591 26.2283 31.621 26.0755 31.6412C25.7408 31.6848 25.4023 31.5951 25.1345 31.3911C24.9344 31.2383 24.787 30.9852 24.4926 30.4796L24.489 30.4735C24.1922 29.9638 24.0444 29.7086 24.0109 29.4598C23.9891 29.2951 24.0002 29.1278 24.0435 28.9675C24.0867 28.8072 24.1613 28.657 24.2629 28.5257C24.357 28.4044 24.489 28.3027 24.6937 28.1745C24.9943 27.9876 25.1875 27.668 25.1875 27.3156C25.1875 26.9631 24.9943 26.6436 24.693 26.456C24.489 26.3284 24.357 26.2267 24.2636 26.1055C24.0577 25.8396 23.9667 25.5036 24.0109 25.1713C24.0444 24.9219 24.1922 24.6673 24.489 24.1577C24.7852 23.648 24.9336 23.3928 25.1345 23.24C25.4029 23.0359 25.7411 22.946 26.0755 22.9899C26.2283 23.0101 26.3831 23.072 26.5965 23.1844C26.7498 23.2676 26.9215 23.3107 27.0958 23.3098C27.2701 23.3089 27.4414 23.264 27.5938 23.1793C27.7433 23.0914 27.868 22.9668 27.956 22.8173C28.0439 22.6678 28.0923 22.4983 28.0965 22.3248C28.106 22.0855 28.1287 21.9206 28.1881 21.7798C28.3178 21.4695 28.5654 21.2235 28.8765 21.0958C29.1102 20.9998 29.407 20.9998 30 20.9998ZM31.9092 27.3156C31.9092 28.3621 31.0547 29.2103 30 29.2103C28.946 29.2103 28.0908 28.3621 28.0908 27.3156C28.0908 26.269 28.9453 25.4208 30 25.4208C31.0541 25.4208 31.9092 26.269 31.9092 27.3156Z" fill="white"/>
</g>
<defs>
<filter id="filter0_d_5_54" x="14" y="18" width="32" height="32" filterUnits="userSpaceOnUse" color-interpolation-filters="sRGB">
<feFlood flood-opacity="0" result="BackgroundImageFix"/>
<feColorMatrix in="SourceAlpha" type="matrix" values="0 0 0 0 0 0 0 0 0 0 0 0 0 0 0 0 0 0 127 0" result="hardAlpha"/>
<feOffset dy="4"/>
<feGaussianBlur stdDeviation="2"/>
<feComposite in2="hardAlpha" operator="out"/>
<feColorMatrix type="matrix" values="0 0 0 0 0 0 0 0 0 0 0 0 0 0 0 0 0 0 0.25 0"/>
<feBlend mode="normal" in2="BackgroundImageFix" result="effect1_dropShadow_5_54"/>
<feBlend mode="normal" in="SourceGraphic" in2="effect1_dropShadow_5_54" result="shape"/>
</filter>
<linearGradient id="paint0_linear_5_54" x1="30" y1="0" x2="30" y2="60" gradientUnits="userSpaceOnUse">
<stop stop-color="#FFCF53"/>
<stop offset="1" stop-color="#FF9900"/>
</linearGradient>
</defs>
</svg>
