<svg width="15" height="18" viewBox="0 0 15 18" fill="none" xmlns="http://www.w3.org/2000/svg">
<path d="M6.00009 1.55268C3.24987 1.75035 1.35607 2.46973 0.344917 3.11886C-0.00364979 3.34263 -0.104817 3.80661 0.118955 4.15517C0.342727 4.50374 0.806699 4.60491 1.15527 4.38114C2.04656 3.80895 4.14741 3 7.50009 3C10.8417 3 12.8857 3.80418 13.8633 4.39259C14.2182 4.60619 14.6791 4.49164 14.8927 4.13675C15.1063 3.78185 14.9917 3.321 14.6368 3.10741C13.5813 2.47214 11.7404 1.75137 9.00009 1.55294V0.75C9.00009 0.335786 8.66431 0 8.25009 0H6.75009C6.33588 0 6.00009 0.335786 6.00009 0.75V1.55268Z" fill="#C20E0E"/>
<path fill-rule="evenodd" clip-rule="evenodd" d="M0.423998 11.831C0.382443 11.6427 0.339702 11.4491 0.295425 11.25C-0.905335 5.85 1.56705 4.5 7.50008 4.5C13.4331 4.5 15.9055 5.85 14.7047 11.25C14.6613 11.4452 14.6194 11.6352 14.5786 11.8199L14.5775 11.8252L14.5763 11.8306C13.4909 16.7473 13.2143 18 7.50008 18C1.78582 18 1.50938 16.7477 0.423998 11.831ZM4.50008 8.25C4.9143 8.25 5.25008 8.58579 5.25008 9V13.5C5.25008 13.9142 4.9143 14.25 4.50008 14.25C4.08587 14.25 3.75009 13.9142 3.75009 13.5V9C3.75009 8.58579 4.08587 8.25 4.50008 8.25ZM8.25008 9C8.25008 8.58579 7.9143 8.25 7.50008 8.25C7.08587 8.25 6.75008 8.58579 6.75008 9V13.5C6.75008 13.9142 7.08587 14.25 7.50008 14.25C7.9143 14.25 8.25008 13.9142 8.25008 13.5V9ZM10.5001 8.25C10.9143 8.25 11.2501 8.58579 11.2501 9V13.5C11.2501 13.9142 10.9143 14.25 10.5001 14.25C10.0859 14.25 9.75008 13.9142 9.75008 13.5V9C9.75008 8.58579 10.0859 8.25 10.5001 8.25Z" fill="#C20E0E"/>
</svg>
