<svg width="13" height="16" viewBox="0 0 13 16" fill="none" xmlns="http://www.w3.org/2000/svg">
<path d="M12.5714 5.71429C12.5714 5.41118 12.451 5.12049 12.2367 4.90616C12.0224 4.69184 11.7317 4.57143 11.4286 4.57143V11.4286C11.4286 12.3379 11.0673 13.21 10.4244 13.8529C9.78138 14.4959 8.90931 14.8571 8 14.8571H2.28571C2.28571 15.1602 2.40612 15.4509 2.62045 15.6653C2.83478 15.8796 3.12547 16 3.42857 16H8.24C9.38877 16 10.4905 15.5437 11.3028 14.7314C12.1151 13.9191 12.5714 12.8173 12.5714 11.6686V5.71429ZM4.57143 0V4C4.57143 4.45466 4.75204 4.89069 5.07353 5.21218C5.39502 5.53367 5.83106 5.71429 6.28571 5.71429H10.288V12C10.288 12.4547 10.1074 12.8907 9.7859 13.2122C9.46441 13.5337 9.02837 13.7143 8.57371 13.7143H1.71429C1.25963 13.7143 0.823594 13.5337 0.502103 13.2122C0.180612 12.8907 0 12.4547 0 12V1.71429C0 1.25963 0.180612 0.823594 0.502103 0.502103C0.823594 0.180612 1.25963 0 1.71429 0H4.57143ZM5.71429 0.285714V4C5.71429 4.15155 5.77449 4.2969 5.88165 4.40406C5.98882 4.51122 6.13416 4.57143 6.28571 4.57143H10L5.71429 0.285714Z" fill="white"/>
</svg>
