<svg width="18" height="18" viewBox="0 0 18 18" fill="none" xmlns="http://www.w3.org/2000/svg">
<path fill-rule="evenodd" clip-rule="evenodd" d="M4.6823 0.351537C5.85486 0.0909463 7.28466 0 9.00024 0C10.7158 0 12.1456 0.0909463 13.3182 0.351537C14.4993 0.61402 15.4648 1.05849 16.2033 1.79697C16.9418 2.53545 17.3862 3.50099 17.6487 4.68206C17.9093 5.85461 18.0002 7.28441 18.0002 9C18.0002 10.7156 17.9093 12.1454 17.6487 13.3179C17.3862 14.499 16.9418 15.4646 16.2033 16.203C15.4648 16.9415 14.4993 17.386 13.3182 17.6485C12.1456 17.9091 10.7158 18 9.00024 18C7.28466 18 5.85486 17.9091 4.6823 17.6485C3.50123 17.386 2.53569 16.9415 1.79721 16.203C1.05873 15.4646 0.614264 14.499 0.351781 13.3179C0.0911902 12.1454 0.000244141 10.7156 0.000244141 9C0.000244141 7.28441 0.0911902 5.85461 0.351781 4.68206C0.614264 3.50099 1.05873 2.53545 1.79721 1.79697C2.53569 1.05849 3.50123 0.61402 4.6823 0.351537ZM9.46467 4.21223C10.025 3.62461 10.9581 3.59378 11.5571 4.13968L13.7703 6.15661C14.3791 6.71138 14.4141 7.65236 13.8445 8.24963L9.28583 13.0301C9.00393 13.3257 8.61343 13.4908 8.20809 13.4923L6.13236 13.5C5.36117 13.5029 4.6947 12.9159 4.64107 12.1262L4.50359 10.1016C4.47565 9.69013 4.62339 9.28897 4.90594 8.99267L9.46467 4.21223ZM10.5477 5.25001L9.87181 5.9588L12.0646 7.94265L12.7335 7.24118L10.5486 5.25001L10.5477 5.25001ZM11.029 9.02856L8.83627 7.04471L6.00134 10.0175L6.13596 12L8.20251 11.9923L11.029 9.02856Z" fill="#4747DD"/>
</svg>
