<svg width="16" height="16" viewBox="0 0 16 16" fill="none" xmlns="http://www.w3.org/2000/svg">
<path d="M12.1419 5.03516C13.7459 5.03516 15.9998 7.10626 15.9998 10.4565C15.9998 10.558 15.9998 10.6392 15.9795 10.7407C15.4314 9.1774 13.9897 8.01996 12.2638 7.89817C12.142 7.57327 11.9795 7.32964 11.7968 7.06565C11.4314 6.49712 10.9847 5.9895 10.5176 5.62395C11.0657 5.23827 11.6342 5.03519 12.1418 5.03519L12.1419 5.03516Z" fill="white"/>
<path d="M12.1223 1.43847e-05C13.2391 1.43847e-05 14.173 0.913686 14.173 2.05075C14.173 2.49745 14.0512 2.88327 13.8076 3.22841C13.7265 3.30957 13.6858 3.39087 13.6249 3.43152C13.2595 3.81734 12.7315 4.06092 12.163 4.06092C11.7163 4.06092 11.29 3.93912 10.9651 3.6751C11.1275 3.24863 11.2291 2.84257 11.2291 2.3756C11.2291 1.7462 11.026 1.13702 10.7012 0.629407C11.0462 0.243583 11.5336 0 12.1223 0L12.1223 1.43847e-05Z" fill="white"/>
<path d="M12.0004 8.91411C12.2644 8.91411 12.5283 8.97501 12.7516 9.01566C14.0309 9.32017 15.0055 10.4574 15.107 11.7974C15.1273 11.8989 15.1273 11.9801 15.1273 12.0816C15.1273 12.3659 15.107 12.6299 15.0257 12.8937C14.6603 14.2339 13.4622 15.2287 11.98 15.2287C11.31 15.2287 10.7008 15.0256 10.1729 14.6602C9.8075 14.4165 9.52309 14.0916 9.27947 13.7261C8.99521 13.2591 8.8125 12.6702 8.8125 12.1017C8.8125 10.5382 9.99017 9.21841 11.4928 8.97482C11.5537 8.95457 11.5943 8.95457 11.6552 8.95457C11.7973 8.91406 11.8988 8.91406 12.0004 8.91406L12.0004 8.91411ZM13.8684 11.4725C13.9902 11.3303 14.0309 11.1273 13.9496 10.9648C13.8074 10.6603 13.4013 10.579 13.1577 10.8226C12.6298 11.4114 12.1018 12.0206 11.5537 12.6095C11.371 12.4268 11.1679 12.2441 10.9852 12.0612C10.7416 11.8379 10.3151 11.919 10.1933 12.2237C10.1121 12.4064 10.1731 12.6095 10.3151 12.7313L11.2288 13.6043C11.3099 13.6855 11.4319 13.7465 11.5739 13.7465C11.7161 13.7465 11.8379 13.6856 11.9394 13.5841L12.4672 12.9749C12.9547 12.4876 13.4217 11.98 13.8684 11.4724L13.8684 11.4725Z" fill="white"/>
<path d="M9.68541 6.37589C10.2337 6.7413 10.7413 7.28956 11.1473 7.97988C11.0458 8.00014 10.9037 8.04079 10.8022 8.06104C9.07622 8.5688 7.79699 10.1728 7.79699 12.0814C7.79699 12.6905 7.91879 13.259 8.1624 13.7869C6.92382 13.8072 5.66497 13.6651 4.81221 13.2793C4.52795 13.1777 4.28432 13.0153 4.10147 12.8528C3.93902 12.6904 3.81722 12.5483 3.73606 12.3249C3.65491 12.1422 3.61426 11.9391 3.61426 11.6955C3.61426 9.07631 4.85284 7.1676 6.1726 6.2742C6.45686 6.07109 6.74113 5.92904 7.04563 5.82749C7.32989 5.72594 7.61416 5.66504 7.87816 5.66504C8.18267 5.66504 8.50756 5.7462 8.85274 5.86814C9.13714 6.01034 9.38073 6.1524 9.68541 6.37576L9.68541 6.37589Z" fill="white"/>
<path d="M7.87811 0.0810547C9.11669 0.0810547 10.1117 1.07602 10.1117 2.31464C10.1117 3.55325 9.11673 4.54822 7.87811 4.54822C6.63949 4.54822 5.64453 3.55325 5.64453 2.31464C5.64453 1.07602 6.63949 0.0810547 7.87811 0.0810547Z" fill="white"/>
<path d="M0 10.437C0 7.08677 2.25381 5.01562 3.85788 5.01562C4.32485 5.01562 4.87311 5.19833 5.38073 5.54351C4.85284 5.92933 4.38576 6.43695 4.00008 7.06636C3.10664 8.4065 2.5788 10.1323 2.61944 11.6755C2.61944 11.8786 2.61944 12.0613 2.68034 12.244C1.70561 12.1425 0.873233 11.8786 0.467032 11.4724C0.142267 11.1882 6.14115e-05 10.843 6.14115e-05 10.4369L0 10.437Z" fill="white"/>
<path d="M1.78711 2.07124C1.78711 0.954448 2.70078 0.0205078 3.83784 0.0205078C4.36572 0.0205078 4.81243 0.203217 5.17798 0.528123C4.81257 1.05601 4.60945 1.68556 4.60945 2.39615C4.60945 2.90376 4.711 3.37073 4.89371 3.81744C4.60945 4.02054 4.24389 4.14234 3.83783 4.14234C3.2693 4.14234 2.74146 3.89873 2.3759 3.51294C2.315 3.43178 2.27435 3.35048 2.19319 3.26932C1.92919 2.90362 1.78713 2.51794 1.78713 2.07124L1.78711 2.07124Z" fill="white"/>
</svg>
