<svg width="50" height="50" viewBox="0 0 50 50" fill="none" xmlns="http://www.w3.org/2000/svg">
<circle cx="25" cy="25" r="25" fill="url(#paint0_linear_1_25)"/>
<circle cx="25" cy="25" r="24" stroke="white" stroke-opacity="0.3" stroke-width="2"/>
<g filter="url(#filter0_d_1_25)">
<path d="M15.8333 30.8333C15.8333 34.2646 17.4512 35 25 35C32.5487 35 34.1666 34.2646 34.1666 30.8333C34.1666 27.4021 32.5487 26.6667 25 26.6667C17.4512 26.6667 15.8333 27.4021 15.8333 30.8333Z" fill="white"/>
<path d="M20 20C20 22.7614 22.2386 25 25 25C27.7614 25 30 22.7614 30 20C30 17.2386 27.7614 15 25 15C22.2386 15 20 17.2386 20 20Z" fill="white"/>
</g>
<defs>
<filter id="filter0_d_1_25" x="11.8333" y="15" width="26.3333" height="28" filterUnits="userSpaceOnUse" color-interpolation-filters="sRGB">
<feFlood flood-opacity="0" result="BackgroundImageFix"/>
<feColorMatrix in="SourceAlpha" type="matrix" values="0 0 0 0 0 0 0 0 0 0 0 0 0 0 0 0 0 0 127 0" result="hardAlpha"/>
<feOffset dy="4"/>
<feGaussianBlur stdDeviation="2"/>
<feComposite in2="hardAlpha" operator="out"/>
<feColorMatrix type="matrix" values="0 0 0 0 0 0 0 0 0 0 0 0 0 0 0 0 0 0 0.25 0"/>
<feBlend mode="normal" in2="BackgroundImageFix" result="effect1_dropShadow_1_25"/>
<feBlend mode="normal" in="SourceGraphic" in2="effect1_dropShadow_1_25" result="shape"/>
</filter>
<linearGradient id="paint0_linear_1_25" x1="25" y1="0" x2="25" y2="50" gradientUnits="userSpaceOnUse">
<stop stop-color="#90DF75"/>
<stop offset="1" stop-color="#62B655"/>
</linearGradient>
</defs>
</svg>
