<svg width="14" height="14" viewBox="0 0 14 14" fill="none" xmlns="http://www.w3.org/2000/svg">
<path d="M3.1276 4.46808C3.74047 4.46808 4.31093 4.22466 4.73623 3.7828C4.8445 3.5672 4.98248 3.36908 5.14509 3.19397C5.28866 2.89291 5.36164 2.57007 5.36164 2.23404C5.36164 1.00219 4.35945 0 3.1276 0C1.89575 0 0.893555 1.00219 0.893555 2.23404C0.893555 3.46589 1.89575 4.46808 3.1276 4.46808Z" fill="white"/>
<path d="M6.99991 7.14973C8.23176 7.14973 9.23395 6.14753 9.23395 4.91568C9.23395 3.68383 8.23176 2.68164 6.99991 2.68164C5.76806 2.68164 4.76587 3.68383 4.76587 4.91568C4.76587 6.14753 5.76806 7.14973 6.99991 7.14973Z" fill="white"/>
<path d="M9.2636 3.7828C9.6889 4.22466 10.2594 4.46808 10.8722 4.46808C12.1041 4.46808 13.1063 3.46589 13.1063 2.23404C13.1063 1.00219 12.1041 0 10.8722 0C9.64038 0 8.63818 1.00219 8.63818 2.23404C8.63818 2.57004 8.71113 2.89285 8.85474 3.19391C9.01734 3.36906 9.15532 3.56717 9.2636 3.7828Z" fill="white"/>
<path d="M10.8724 4.76562C10.4002 4.76562 9.94796 4.86774 9.52677 5.0691C9.46589 6.0746 8.81566 6.92305 7.91772 7.27362C9.36238 7.67578 10.4256 9.00307 10.4256 10.5741V11.0209H14V7.89328C14 6.16869 12.597 4.76562 10.8724 4.76562Z" fill="white"/>
<path d="M6.08231 7.27362C5.18438 6.92302 4.53412 6.0746 4.47324 5.0691C4.05208 4.86774 3.59988 4.76562 3.12766 4.76562C1.40307 4.76562 0 6.16869 0 7.89328V11.0209H3.57447V10.5741C3.57447 9.00307 4.63766 7.67578 6.08231 7.27362Z" fill="white"/>
<path d="M6.99997 7.44727C5.27538 7.44727 3.87231 8.85036 3.87231 10.5749V13.7026H10.1276V10.5749C10.1276 8.85036 8.72457 7.44727 6.99997 7.44727Z" fill="white"/>
</svg>
