<svg width="14" height="14" viewBox="0 0 14 14" fill="none" xmlns="http://www.w3.org/2000/svg">
<path d="M0.424961 5.4242C0.306554 5.59621 0.0148758 5.51229 0.0233071 5.30364C0.101931 3.35788 0.347286 1.60061 0.894398 1.02794C2.2052 -0.344077 7.58883 -0.107234 8.89964 0.391682C9.19237 0.503101 9.41349 0.644713 9.5804 0.804422C9.6949 0.913991 9.60388 1.0866 9.44543 1.08978C8.94864 1.09977 8.44366 1.13937 7.93899 1.20852C5.58621 1.53093 3.12014 2.51085 1.36568 4.28884C1.02116 4.63798 0.705709 5.01635 0.424961 5.4242Z" fill="white"/>
<path fill-rule="evenodd" clip-rule="evenodd" d="M0.162968 10.8222C0.20347 11.2487 0.247064 11.5823 0.288751 11.7861C0.290381 11.7941 0.301413 11.7929 0.301413 11.7847C0.301413 11.7766 0.313522 11.776 0.315519 11.7839C0.801473 13.6973 2.39189 14 6.24933 14C11.8521 14 13.1908 12.9545 13.8338 8.07628C14.3533 4.13515 13.7592 2.69565 10.5573 2.28805C9.7885 2.2254 8.95466 2.24691 8.09737 2.36439C5.92723 2.66177 3.72445 3.55945 2.19611 5.10828C0.867809 6.4544 0.0162401 8.32311 0.162968 10.8222ZM5.25 10.5C5.25 10.1778 5.51117 9.91667 5.83333 9.91667H10.5C10.8222 9.91667 11.0833 10.1778 11.0833 10.5C11.0833 10.8222 10.8222 11.0833 10.5 11.0833H5.83333C5.51117 11.0833 5.25 10.8222 5.25 10.5ZM10.5 7.58333C10.8222 7.58333 11.0833 7.8445 11.0833 8.16667C11.0833 8.48883 10.8222 8.75 10.5 8.75H8.16667C7.8445 8.75 7.58333 8.48883 7.58333 8.16667C7.58333 7.8445 7.8445 7.58333 8.16667 7.58333H10.5Z" fill="white"/>
</svg>
