<svg width="21" height="21" viewBox="0 0 21 21" fill="none" xmlns="http://www.w3.org/2000/svg">
<path fill-rule="evenodd" clip-rule="evenodd" d="M14.3814 0.894733C13.3829 0.621283 12.3514 0.487303 11.3162 0.496541C8.36289 0.496541 5.81641 1.45441 3.69829 3.32929C2.31655 4.53518 1.26589 6.07416 0.645974 7.80016C0.210853 9.02222 -0.00768039 10.3108 0.000206073 11.608V11.6661C0.000206073 14.3224 0.861218 16.49 2.54452 18.1238C4.22782 19.7576 6.47079 20.6057 9.21745 20.6057C12.4032 20.6057 15.0911 19.5295 17.2809 17.3769C19.4787 15.2243 20.5657 12.553 20.5657 9.38872C20.5758 8.39147 20.4372 7.39831 20.1546 6.44188C19.6038 6.68701 19.0075 6.81317 18.4046 6.81212C17.6991 6.80825 17.0051 6.63271 16.3827 6.30062C15.7602 5.96853 15.2279 5.48987 14.8319 4.90603C14.4358 4.32219 14.1878 3.65073 14.1093 2.9496C14.0308 2.24847 14.1242 1.53876 14.3814 0.881805V0.894733ZM9.66302 15.9153C10.4099 15.9276 11.1507 15.7789 11.8349 15.4791C12.5192 15.1793 13.1308 14.7356 13.628 14.1782C14.7172 13.0244 15.2403 11.58 15.2403 9.86228C15.2403 8.4954 14.8098 7.38258 13.9789 6.52155C13.1803 5.64331 12.0933 5.21493 10.7716 5.21493C10.0843 5.20976 9.40281 5.34017 8.76603 5.59873C8.12924 5.85728 7.5497 6.2389 7.06059 6.72173C5.99468 7.74817 5.33245 9.12301 5.19431 10.5963V11.2614C5.19431 12.6283 5.60331 13.7412 6.41913 14.6195C7.23495 15.4977 8.32198 15.9153 9.66302 15.9153Z" fill="black"/>
<path d="M20.8793 2.48406C20.8764 2.97173 20.729 3.44755 20.4559 3.85159C20.1828 4.25562 19.7962 4.56978 19.3448 4.75434C18.8934 4.9389 18.3974 4.98563 17.9195 4.88866C17.4416 4.7917 17.003 4.55536 16.6592 4.20947C16.3155 3.86359 16.0818 3.42368 15.9878 2.94516C15.8937 2.46664 15.9435 1.97094 16.1308 1.52067C16.3181 1.07039 16.6345 0.685697 17.0402 0.415061C17.4459 0.144426 17.9227 9.08185e-06 18.4104 0C18.7356 0.000846541 19.0575 0.0657613 19.3577 0.191082C19.6578 0.316402 19.9303 0.499683 20.1596 0.730378C20.3889 0.961072 20.5705 1.23468 20.694 1.53559C20.8175 1.8365 20.8805 2.1588 20.8793 2.48406V2.48406Z" fill="#FFB800"/>
</svg>
