<svg width="16" height="15" viewBox="0 0 16 15" fill="none" xmlns="http://www.w3.org/2000/svg">
<path d="M14.5194 3.01512H10.8854V1.92342C10.8854 0.866406 10.0441 0 9.01785 0H6.94847C5.92218 0 5.08096 0.866406 5.08096 1.92342V3.01512H1.4637C0.656154 3.01512 0 3.69092 0 4.52264V12.9441C0 13.7758 0.656154 14.4516 1.4637 14.4516H14.5363C15.3438 14.4516 16 13.7758 16 12.9441V4.52264C15.9832 3.69092 15.3271 3.01512 14.5195 3.01512H14.5194ZM6.56148 1.92342C6.56148 1.69812 6.74655 1.50751 6.9653 1.50751H9.03467C9.25343 1.50751 9.43849 1.69813 9.43849 1.92342V3.01512H6.56145L6.56148 1.92342ZM12.5173 9.07993C12.0126 9.47845 11.4069 9.66905 10.7844 9.65176L8.81596 9.56509L7.78966 11.8697C7.63827 12.199 7.36905 12.4243 7.04936 12.4935C6.91475 12.5282 6.79704 12.4069 6.81382 12.2682L7.15028 9.47841L4.54246 9.35706L4.206 10.2062C4.10507 10.4488 3.88631 10.6047 3.634 10.6047H3.48261C3.36478 10.6047 3.28075 10.5007 3.31431 10.3794L3.61709 9.01052C3.66756 8.80262 3.66756 8.59462 3.61709 8.38671L3.29752 7.05241C3.28074 6.93106 3.36477 6.82711 3.46581 6.82711L3.61709 6.82723C3.86941 6.82723 4.08817 6.98316 4.18909 7.22575L4.52555 8.07486L7.13337 7.9535L6.79691 5.16368C6.78013 5.02504 6.89784 4.92109 7.03245 4.93837C7.35214 5.02504 7.63813 5.25022 7.77275 5.56218L8.79905 7.86682L10.7675 7.78016C11.39 7.76287 12.0125 7.95349 12.5004 8.35199C12.7529 8.56001 12.7529 8.90655 12.5173 9.07986L12.5173 9.07993Z" fill="#CACED1"/>
</svg>
