<svg width="20" height="20" viewBox="0 0 20 20" fill="none" xmlns="http://www.w3.org/2000/svg">
<path fill-rule="evenodd" clip-rule="evenodd" d="M14.958 4.28448C14.8043 3.00603 14.2383 1.98113 13.4182 1.25216C12.4657 0.40547 11.2192 0 10 0C8.78077 0 7.53431 0.40547 6.58178 1.25216C5.76169 1.98113 5.19571 3.00603 5.04201 4.28448C5.02843 4.39737 4.94202 4.49013 4.83024 4.51098C0.970558 5.23108 0 7.24891 0 12.0833C0 18.6027 1.765 20 10 20C18.235 20 20 18.6027 20 12.0833C20 7.24891 19.0294 5.23108 15.1698 4.51098C15.058 4.49013 14.9716 4.39737 14.958 4.28448ZM7.04963 4.24937C7.92627 4.19133 8.90604 4.16667 10 4.16667C11.094 4.16667 12.0737 4.19133 12.9504 4.24937C13.1134 4.26017 13.2448 4.11527 13.2019 3.95756C13.0315 3.3309 12.7086 2.85127 12.3109 2.49784C11.701 1.95564 10.8641 1.66667 10 1.66667C9.13589 1.66667 8.29903 1.95564 7.68905 2.49784C7.29145 2.85127 6.96845 3.3309 6.79806 3.95756C6.75518 4.11527 6.88655 4.26017 7.04963 4.24937ZM13.9541 9.58175C14.2424 9.29835 14.2424 8.83416 13.9541 8.54588C13.6805 8.26248 13.1919 8.26248 12.9183 8.54588L11.0175 10.4466L6.52717 9.41073L5.83333 10.0997L9.46375 12.0102L7.5728 13.9011L6.35127 13.7203L5.83333 14.248L7.39202 15.1129L8.25198 16.6667L8.7748 16.1487L8.5989 14.9419L10.5045 13.0363L12.4003 16.6667L13.0893 15.9728L12.0534 11.4825L13.9541 9.58175Z" fill="#869098"/>
</svg>
