<svg width="14" height="14" viewBox="0 0 14 14" fill="none" xmlns="http://www.w3.org/2000/svg">
<path fill-rule="evenodd" clip-rule="evenodd" d="M10.4706 2.99913C10.363 2.10422 9.96682 1.38679 9.39275 0.876511C8.72599 0.283829 7.85346 0 7 0C6.14654 0 5.27401 0.283829 4.60725 0.876511C4.03318 1.38679 3.637 2.10422 3.5294 2.99913C3.5199 3.07816 3.45941 3.14309 3.38117 3.15769C0.679391 3.66176 0 5.07424 0 8.45833C0 13.0219 1.2355 14 7 14C12.7645 14 14 13.0219 14 8.45833C14 5.07424 13.3206 3.66176 10.6188 3.15769C10.5406 3.14309 10.4801 3.07816 10.4706 2.99913ZM4.93474 2.97456C5.54839 2.93393 6.23423 2.91667 7 2.91667C7.76577 2.91667 8.45161 2.93393 9.06526 2.97456C9.17941 2.98212 9.27137 2.88069 9.24135 2.77029C9.12208 2.33163 8.89599 1.99589 8.61766 1.74849C8.19068 1.36895 7.60488 1.16667 7 1.16667C6.39512 1.16667 5.80932 1.36895 5.38234 1.74849C5.10401 1.99589 4.87792 2.33163 4.75864 2.77029C4.72863 2.88069 4.82059 2.98212 4.93474 2.97456ZM9.76788 6.70722C9.96968 6.50884 9.96968 6.18392 9.76788 5.98212C9.57635 5.78374 9.23431 5.78374 9.04278 5.98212L7.71228 7.31262L4.56902 6.58751L4.08333 7.06977L6.62462 8.40711L5.30096 9.73077L4.44589 9.60422L4.08333 9.97361L5.17441 10.579L5.77639 11.6667L6.14236 11.3041L6.01923 10.4593L7.35315 9.12538L8.68022 11.6667L9.16249 11.181L8.43738 8.03772L9.76788 6.70722Z" fill="white"/>
</svg>
