<svg width="14" height="15" viewBox="0 0 14 15" fill="none" xmlns="http://www.w3.org/2000/svg">
<path fill-rule="evenodd" clip-rule="evenodd" d="M0 7.70215C0 13.4666 1.2355 14.7021 7 14.7021C12.7645 14.7021 14 13.4666 14 7.70215C14 1.93765 12.7645 0.702148 7 0.702148C1.2355 0.702148 0 1.93765 0 7.70215ZM7 4.78548C7.32217 4.78548 7.58333 5.04665 7.58333 5.36881V8.86881C7.58333 9.19098 7.32217 9.45215 7 9.45215C6.67783 9.45215 6.41667 9.19098 6.41667 8.86881V5.36881C6.41667 5.04665 6.67783 4.78548 7 4.78548ZM7 10.0355C6.67783 10.0355 6.41667 10.2966 6.41667 10.6188C6.41667 10.941 6.67783 11.2021 7 11.2021C7.32217 11.2021 7.58333 10.941 7.58333 10.6188C7.58333 10.2966 7.32217 10.0355 7 10.0355Z" fill="white"/>
</svg>
