<svg width="14" height="15" viewBox="0 0 14 15" fill="none" xmlns="http://www.w3.org/2000/svg">
<path d="M2.80011 14.56C4.34397 14.56 5.6 13.3039 5.6 11.7599C5.6 10.216 4.34397 8.95996 2.80011 8.95996C1.25624 8.95996 0 10.216 0 11.7599C0 13.3039 1.25603 14.56 2.80011 14.56ZM1.82253 11.0976C1.85963 10.7588 2.1206 10.49 2.47048 10.3806V10.245C2.47048 10.0631 2.61802 9.91558 2.79989 9.91558C2.98176 9.91558 3.12931 10.0631 3.12931 10.245V10.3676C3.34337 10.4211 3.5327 10.5256 3.67193 10.6744C3.79623 10.8072 3.78941 11.0155 3.65658 11.1398C3.52353 11.2641 3.31523 11.2573 3.19092 11.1245C3.12419 11.0533 3.00948 11.0027 2.8839 10.9891C2.66664 10.9654 2.48839 11.0665 2.47709 11.169C2.4692 11.2413 2.79883 11.3957 2.93955 11.4618C3.31778 11.6392 3.8361 11.8822 3.77704 12.4225C3.75018 12.669 3.60242 12.8918 3.37151 13.0332C3.29689 13.0788 3.2148 13.1133 3.12931 13.1398V13.2751C3.12931 13.457 2.98176 13.6046 2.79989 13.6046C2.61802 13.6046 2.47048 13.457 2.47048 13.2751V13.1515C2.25343 13.0956 2.05792 12.9848 1.91912 12.8304C1.79737 12.6952 1.80846 12.4869 1.94342 12.3652C2.07903 12.2432 2.28712 12.2547 2.40865 12.3895C2.47603 12.4643 2.59073 12.517 2.71567 12.5306C2.83145 12.5438 2.94509 12.5217 3.02739 12.4711C3.06001 12.4511 3.11609 12.4089 3.12248 12.3507C3.13037 12.2782 2.80075 12.1238 2.66024 12.0577C2.28158 11.881 1.76369 11.6381 1.82253 11.0976Z" fill="white"/>
<path fill-rule="evenodd" clip-rule="evenodd" d="M13.8967 8.74658C13.9393 8.14916 13.9592 7.47215 13.9592 6.70323C13.9592 5.07779 13.8704 3.86312 13.6659 2.94267C13.4649 2.03744 13.1702 1.50102 12.8146 1.14522C12.459 0.789427 11.9228 0.494586 11.0181 0.293407C10.0982 0.0888441 8.88414 0 7.25959 0C5.63503 0 4.42102 0.0888441 3.50107 0.293407C2.59633 0.494586 2.0602 0.789427 1.7046 1.14522C1.349 1.50102 1.05432 2.03744 0.853245 2.94267C0.648793 3.86312 0.559998 5.07779 0.559998 6.70323C0.559998 7.66043 0.590791 8.47518 0.657864 9.17129C1.23937 8.68955 1.98587 8.4 2.8 8.4C4.65568 8.4 6.16 9.90432 6.16 11.76C6.16 12.3453 6.01033 12.8957 5.74718 13.3749C6.20733 13.3963 6.70996 13.4065 7.25959 13.4065C8.03132 13.4065 8.71041 13.3864 9.30935 13.3434C9.30696 13.2232 9.30065 13.0944 9.29349 12.9482C9.28945 12.8659 9.28515 12.7782 9.28113 12.6833C9.26871 12.3905 9.26083 12.0564 9.28618 11.7138C9.33657 11.0325 9.52379 10.2395 10.1478 9.61326C10.7737 8.98505 11.5902 8.7926 12.2779 8.73601C12.6267 8.7073 12.9654 8.7118 13.2596 8.722C13.3732 8.72593 13.4754 8.73041 13.5687 8.7345C13.6901 8.73981 13.7971 8.7445 13.8967 8.74658ZM8.5995 2.68129C8.2295 2.68129 7.92954 2.9814 7.92954 3.35161C7.92954 3.72182 8.2295 4.02194 8.5995 4.02194H10.6094C10.9794 4.02194 11.2793 3.72182 11.2793 3.35161C11.2793 2.9814 10.9794 2.68129 10.6094 2.68129H8.5995ZM3.23983 6.70323C3.23983 6.33302 3.53978 6.0329 3.90979 6.0329H10.6094C10.9794 6.0329 11.2793 6.33302 11.2793 6.70323C11.2793 7.07343 10.9794 7.37355 10.6094 7.37355H3.90979C3.53978 7.37355 3.23983 7.07343 3.23983 6.70323ZM10.6452 13.1868C10.6413 13.075 10.6357 12.9596 10.6302 12.8468C10.6265 12.7716 10.6229 12.6975 10.6198 12.6264C10.6081 12.3485 10.6029 12.0764 10.6224 11.8127C10.6617 11.2815 10.7955 10.8621 11.0967 10.5598C11.396 10.2594 11.8347 10.1176 12.3877 10.0721C12.6592 10.0498 12.9373 10.0523 13.2132 10.0618C13.2953 10.0647 13.3817 10.0684 13.4689 10.0722L13.4699 10.0722L13.4701 10.0722L13.4702 10.0723L13.4703 10.0723C13.5611 10.0762 13.6527 10.0801 13.741 10.0832C13.7179 10.2154 13.6929 10.3421 13.6659 10.4638C13.4649 11.369 13.1702 11.9054 12.8146 12.2612C12.459 12.617 11.9228 12.9119 11.0181 13.113C10.8988 13.1396 10.7746 13.1641 10.6452 13.1868Z" fill="white"/>
</svg>
