<svg width="60" height="60" viewBox="0 0 60 60" fill="none" xmlns="http://www.w3.org/2000/svg">
<circle cx="30" cy="30" r="30" fill="url(#paint0_linear_11432_7910)"/>
<circle cx="30" cy="30" r="29" stroke="white" stroke-opacity="0.3" stroke-width="2"/>
<path d="M30.0015 28.6534C31.754 28.6534 33.1748 27.2505 33.1748 25.5201C33.1748 23.7896 31.754 22.3867 30.0015 22.3867C28.2489 22.3867 26.8281 23.7896 26.8281 25.5201C26.8281 27.2505 28.2489 28.6534 30.0015 28.6534Z" fill="#F8F8F8"/>
<path d="M25.1854 25.8353H25.5054V25.5486C25.5073 24.715 25.7425 23.8986 26.1843 23.1917C26.6261 22.4848 27.2569 21.9156 28.0054 21.5486C27.7838 21.0383 27.4282 20.5975 26.9762 20.2731C26.5242 19.9488 25.9929 19.7528 25.4385 19.7062C24.8842 19.6595 24.3275 19.7639 23.8277 20.0082C23.3279 20.2525 22.9036 20.6276 22.5998 21.0937C22.2961 21.5597 22.1242 22.0994 22.1026 22.6553C22.0809 23.2112 22.2102 23.7626 22.4767 24.2509C22.7432 24.7392 23.137 25.1462 23.6163 25.4287C24.0956 25.7112 24.6424 25.8586 25.1987 25.8553L25.1854 25.8353ZM34.5054 25.5219V25.8086H34.8254C35.3743 25.8031 35.9115 25.6497 36.3806 25.3646C36.8497 25.0795 37.2332 24.6732 37.4909 24.1885C37.7485 23.7037 37.8707 23.1585 37.8446 22.6102C37.8185 22.0619 37.6451 21.5308 37.3426 21.0727C37.0401 20.6147 36.6197 20.2467 36.1256 20.0074C35.6316 19.7681 35.0822 19.6665 34.5352 19.7131C33.9883 19.7598 33.464 19.953 33.0176 20.2725C32.5713 20.592 32.2193 21.0259 31.9987 21.5286C32.7474 21.8942 33.3789 22.4619 33.8219 23.1676C34.2648 23.8732 34.5016 24.6888 34.5054 25.5219ZM32.8587 28.9686C34.1842 29.231 35.4659 29.6799 36.6654 30.3019C36.8344 30.3948 36.9874 30.514 37.1187 30.6553H40.6654V28.3753C40.666 28.2878 40.6428 28.2018 40.5981 28.1266C40.5535 28.0515 40.4891 27.9899 40.412 27.9486C38.6841 27.0448 36.762 26.5757 34.812 26.5819H34.372C34.141 27.5211 33.6096 28.3591 32.8587 28.9686ZM22.352 31.9486C22.3508 31.6128 22.4415 31.2832 22.6142 30.9952C22.787 30.7073 23.0352 30.4722 23.332 30.3153C24.5316 29.6932 25.8132 29.2443 27.1387 28.9819C26.3914 28.3776 25.8604 27.5471 25.6254 26.6153H25.1854C23.2354 26.609 21.3133 27.0781 19.5854 27.9819C19.5083 28.0232 19.4439 28.0848 19.3993 28.16C19.3547 28.2352 19.3314 28.3211 19.332 28.4086V32.6686H22.352V31.9486ZM32.3054 35.7953H36.2787V36.7286H32.3054V35.7953Z" fill="#F8F8F8"/>
<path d="M39.8742 32.1734H35.2942V31.5068C35.2942 31.33 35.2239 31.1604 35.0989 31.0354C34.9739 30.9103 34.8043 30.8401 34.6275 30.8401C34.4507 30.8401 34.2811 30.9103 34.1561 31.0354C34.0311 31.1604 33.9608 31.33 33.9608 31.5068V32.1734H32.6675V30.2868C31.7904 30.1026 30.8971 30.0066 30.0008 30.0001C27.8967 29.9913 25.8226 30.4996 23.9608 31.4801C23.8779 31.5231 23.8085 31.5882 23.7603 31.6682C23.712 31.7482 23.6869 31.84 23.6875 31.9334V35.6734H28.4275V39.7334C28.4275 39.9103 28.4978 40.0798 28.6228 40.2048C28.7478 40.3299 28.9174 40.4001 29.0942 40.4001H39.8742C40.051 40.4001 40.2206 40.3299 40.3456 40.2048C40.4706 40.0798 40.5408 39.9103 40.5408 39.7334V32.8401C40.5408 32.6633 40.4706 32.4937 40.3456 32.3687C40.2206 32.2437 40.051 32.1734 39.8742 32.1734ZM39.2075 39.0801H29.7608V33.5068H33.9608V34.1134C33.9608 34.2903 34.0311 34.4598 34.1561 34.5848C34.2811 34.7099 34.4507 34.7801 34.6275 34.7801C34.8043 34.7801 34.9739 34.7099 35.0989 34.5848C35.2239 34.4598 35.2942 34.2903 35.2942 34.1134V33.5068H39.2075V39.0801Z" fill="#F8F8F8"/>
<defs>
<linearGradient id="paint0_linear_11432_7910" x1="28.5" y1="-3.38934e-07" x2="28.5" y2="60" gradientUnits="userSpaceOnUse">
<stop stop-color="#EF658E"/>
<stop offset="1" stop-color="#C0137B"/>
</linearGradient>
</defs>
</svg>
