<svg width="19" height="20" viewBox="0 0 19 20" fill="none" xmlns="http://www.w3.org/2000/svg">
<path d="M11.5385 0.769231C11.5385 0.344396 11.8829 0 12.3077 0C12.7325 0 13.0769 0.344396 13.0769 0.769231V3.84615C13.0769 4.27099 12.7325 4.61538 12.3077 4.61538C11.8829 4.61538 11.5385 4.27099 11.5385 3.84615V0.769231Z" fill="#869098"/>
<path d="M10.7692 1.56496C10.2858 1.54677 9.77351 1.53846 9.23077 1.53846C8.68803 1.53846 8.17574 1.54677 7.69231 1.56496V3.84615C7.69231 4.69582 7.00352 5.38462 6.15385 5.38462C5.30418 5.38462 4.61539 4.69582 4.61539 3.84615V1.90435C1.91716 2.4944 0.698033 3.90156 0.23697 6.84687C0.166506 7.297 0.52494 7.69231 0.980549 7.69231H17.481C17.9366 7.69231 18.295 7.297 18.2246 6.84687C17.7635 3.90156 16.5444 2.4944 13.8462 1.90435V3.84615C13.8462 4.69582 13.1574 5.38462 12.3077 5.38462C11.458 5.38462 10.7692 4.69582 10.7692 3.84615V1.56496Z" fill="#869098"/>
<path fill-rule="evenodd" clip-rule="evenodd" d="M9.23077 20C1.62923 20 0 18.3708 0 10.7692C0 10.4956 0.00211135 10.2297 0.00653667 9.97131C0.0136193 9.55779 0.353747 9.23077 0.767326 9.23077H17.6942C18.1078 9.23077 18.4479 9.55779 18.455 9.97131C18.4594 10.2297 18.4615 10.4956 18.4615 10.7692C18.4615 18.3708 16.8323 20 9.23077 20ZM3.84615 12.3077C3.84615 11.8829 4.19055 11.5385 4.61539 11.5385H6.92308C7.34791 11.5385 7.69231 11.8829 7.69231 12.3077C7.69231 12.7325 7.34791 13.0769 6.92308 13.0769H4.61539C4.19055 13.0769 3.84615 12.7325 3.84615 12.3077ZM4.61539 14.6154C4.19055 14.6154 3.84615 14.9598 3.84615 15.3846C3.84615 15.8095 4.19055 16.1538 4.61539 16.1538H6.92308C7.34791 16.1538 7.69231 15.8095 7.69231 15.3846C7.69231 14.9598 7.34791 14.6154 6.92308 14.6154H4.61539ZM10.7692 12.3077C10.7692 11.8829 11.1136 11.5385 11.5385 11.5385H13.8462C14.271 11.5385 14.6154 11.8829 14.6154 12.3077C14.6154 12.7325 14.271 13.0769 13.8462 13.0769H11.5385C11.1136 13.0769 10.7692 12.7325 10.7692 12.3077ZM11.5385 14.6154C11.1136 14.6154 10.7692 14.9598 10.7692 15.3846C10.7692 15.8095 11.1136 16.1538 11.5385 16.1538H13.8462C14.271 16.1538 14.6154 15.8095 14.6154 15.3846C14.6154 14.9598 14.271 14.6154 13.8462 14.6154H11.5385Z" fill="#869098"/>
<path d="M5.38462 0.769231C5.38462 0.344396 5.72901 0 6.15385 0C6.57868 0 6.92308 0.344396 6.92308 0.769231V3.84615C6.92308 4.27099 6.57868 4.61538 6.15385 4.61538C5.72901 4.61538 5.38462 4.27099 5.38462 3.84615V0.769231Z" fill="#869098"/>
</svg>
