<svg width="50" height="50" viewBox="0 0 50 50" fill="none" xmlns="http://www.w3.org/2000/svg">
<circle cx="25" cy="25" r="25" fill="url(#paint0_linear_1_22)"/>
<circle cx="25" cy="25" r="24" stroke="white" stroke-opacity="0.3" stroke-width="2"/>
<g filter="url(#filter0_d_1_22)">
<path d="M27.5 15.8333C27.5 15.3731 27.8731 15 28.3333 15C28.7936 15 29.1667 15.3731 29.1667 15.8333V19.1667C29.1667 19.6269 28.7936 20 28.3333 20C27.8731 20 27.5 19.6269 27.5 19.1667V15.8333Z" fill="white"/>
<path d="M26.6667 16.6954C26.143 16.6757 25.588 16.6667 25 16.6667C24.412 16.6667 23.857 16.6757 23.3333 16.6954V19.1667C23.3333 20.0871 22.5871 20.8333 21.6667 20.8333C20.7462 20.8333 20 20.0871 20 19.1667V17.063C17.0769 17.7023 15.7562 19.2267 15.2567 22.4174C15.1804 22.9051 15.5687 23.3333 16.0623 23.3333H33.9377C34.4313 23.3333 34.8196 22.9051 34.7433 22.4174C34.2438 19.2267 32.9231 17.7023 30 17.063V19.1667C30 20.0871 29.2538 20.8333 28.3333 20.8333C27.4129 20.8333 26.6667 20.0871 26.6667 19.1667V16.6954Z" fill="white"/>
<path fill-rule="evenodd" clip-rule="evenodd" d="M25 36.6667C16.765 36.6667 15 34.9017 15 26.6667C15 26.3702 15.0023 26.0821 15.0071 25.8022C15.0148 25.3543 15.3832 25 15.8313 25H34.1687C34.6168 25 34.9852 25.3543 34.9929 25.8022C34.9977 26.0821 35 26.3702 35 26.6667C35 34.9017 33.235 36.6667 25 36.6667ZM19.1667 28.3333C19.1667 27.8731 19.5398 27.5 20 27.5H22.5C22.9602 27.5 23.3333 27.8731 23.3333 28.3333C23.3333 28.7936 22.9602 29.1667 22.5 29.1667H20C19.5398 29.1667 19.1667 28.7936 19.1667 28.3333ZM20 30.8333C19.5398 30.8333 19.1667 31.2064 19.1667 31.6667C19.1667 32.1269 19.5398 32.5 20 32.5H22.5C22.9602 32.5 23.3333 32.1269 23.3333 31.6667C23.3333 31.2064 22.9602 30.8333 22.5 30.8333H20ZM26.6667 28.3333C26.6667 27.8731 27.0398 27.5 27.5 27.5H30C30.4602 27.5 30.8333 27.8731 30.8333 28.3333C30.8333 28.7936 30.4602 29.1667 30 29.1667H27.5C27.0398 29.1667 26.6667 28.7936 26.6667 28.3333ZM27.5 30.8333C27.0398 30.8333 26.6667 31.2064 26.6667 31.6667C26.6667 32.1269 27.0398 32.5 27.5 32.5H30C30.4602 32.5 30.8333 32.1269 30.8333 31.6667C30.8333 31.2064 30.4602 30.8333 30 30.8333H27.5Z" fill="white"/>
<path d="M20.8333 15.8333C20.8333 15.3731 21.2064 15 21.6667 15C22.1269 15 22.5 15.3731 22.5 15.8333V19.1667C22.5 19.6269 22.1269 20 21.6667 20C21.2064 20 20.8333 19.6269 20.8333 19.1667V15.8333Z" fill="white"/>
</g>
<defs>
<filter id="filter0_d_1_22" x="11" y="15" width="28" height="29.6667" filterUnits="userSpaceOnUse" color-interpolation-filters="sRGB">
<feFlood flood-opacity="0" result="BackgroundImageFix"/>
<feColorMatrix in="SourceAlpha" type="matrix" values="0 0 0 0 0 0 0 0 0 0 0 0 0 0 0 0 0 0 127 0" result="hardAlpha"/>
<feOffset dy="4"/>
<feGaussianBlur stdDeviation="2"/>
<feComposite in2="hardAlpha" operator="out"/>
<feColorMatrix type="matrix" values="0 0 0 0 0 0 0 0 0 0 0 0 0 0 0 0 0 0 0.25 0"/>
<feBlend mode="normal" in2="BackgroundImageFix" result="effect1_dropShadow_1_22"/>
<feBlend mode="normal" in="SourceGraphic" in2="effect1_dropShadow_1_22" result="shape"/>
</filter>
<linearGradient id="paint0_linear_1_22" x1="25" y1="0" x2="25" y2="50" gradientUnits="userSpaceOnUse">
<stop stop-color="#FF7F7E"/>
<stop offset="1" stop-color="#FE1F1E"/>
</linearGradient>
</defs>
</svg>
