<svg width="13" height="14" viewBox="0 0 13 14" fill="none" xmlns="http://www.w3.org/2000/svg">
<path d="M8.07692 0.538462C8.07692 0.241078 8.318 0 8.61539 0C8.91277 0 9.15385 0.241077 9.15385 0.538462V2.69231C9.15385 2.98969 8.91277 3.23077 8.61539 3.23077C8.318 3.23077 8.07692 2.98969 8.07692 2.69231V0.538462Z" fill="white"/>
<path d="M7.53846 1.09547C7.20006 1.08274 6.84146 1.07692 6.46154 1.07692C6.08162 1.07692 5.72302 1.08274 5.38462 1.09547V2.69231C5.38462 3.28708 4.90246 3.76923 4.30769 3.76923C3.71292 3.76923 3.23077 3.28708 3.23077 2.69231V1.33304C1.34201 1.74608 0.488623 2.73109 0.165879 4.79281C0.116555 5.1079 0.367458 5.38462 0.686385 5.38462H12.2367C12.5556 5.38462 12.8065 5.1079 12.7572 4.79281C12.4345 2.73109 11.5811 1.74608 9.69231 1.33304V2.69231C9.69231 3.28708 9.21015 3.76923 8.61539 3.76923C8.02062 3.76923 7.53846 3.28708 7.53846 2.69231V1.09547Z" fill="white"/>
<path fill-rule="evenodd" clip-rule="evenodd" d="M6.46154 14C1.14046 14 0 12.8595 0 7.53846C0 7.34691 0.00147795 7.16077 0.00457567 6.97991C0.00953354 6.69045 0.247623 6.46154 0.537128 6.46154H12.3859C12.6755 6.46154 12.9135 6.69045 12.9185 6.97991C12.9216 7.16077 12.9231 7.34691 12.9231 7.53846C12.9231 12.8595 11.7826 14 6.46154 14ZM2.69231 8.61539C2.69231 8.318 2.93339 8.07692 3.23077 8.07692H4.84615C5.14354 8.07692 5.38462 8.318 5.38462 8.61539C5.38462 8.91277 5.14354 9.15385 4.84615 9.15385H3.23077C2.93339 9.15385 2.69231 8.91277 2.69231 8.61539ZM3.23077 10.2308C2.93339 10.2308 2.69231 10.4718 2.69231 10.7692C2.69231 11.0666 2.93339 11.3077 3.23077 11.3077H4.84615C5.14354 11.3077 5.38462 11.0666 5.38462 10.7692C5.38462 10.4718 5.14354 10.2308 4.84615 10.2308H3.23077ZM7.53846 8.61539C7.53846 8.318 7.77954 8.07692 8.07692 8.07692H9.69231C9.98969 8.07692 10.2308 8.318 10.2308 8.61539C10.2308 8.91277 9.98969 9.15385 9.69231 9.15385H8.07692C7.77954 9.15385 7.53846 8.91277 7.53846 8.61539ZM8.07692 10.2308C7.77954 10.2308 7.53846 10.4718 7.53846 10.7692C7.53846 11.0666 7.77954 11.3077 8.07692 11.3077H9.69231C9.98969 11.3077 10.2308 11.0666 10.2308 10.7692C10.2308 10.4718 9.98969 10.2308 9.69231 10.2308H8.07692Z" fill="white"/>
<path d="M3.76923 0.538462C3.76923 0.241078 4.01031 0 4.30769 0C4.60508 0 4.84615 0.241077 4.84615 0.538462V2.69231C4.84615 2.98969 4.60508 3.23077 4.30769 3.23077C4.01031 3.23077 3.76923 2.98969 3.76923 2.69231V0.538462Z" fill="white"/>
</svg>
