<svg width="138" height="41" viewBox="0 0 138 41" fill="none" xmlns="http://www.w3.org/2000/svg">
<path d="M19.1807 12.6742C18.8564 12.6472 18.4481 12.6172 17.9346 12.6172C13.9501 12.6172 11.3289 14.3347 10.0738 17.7937L10.5061 13.2898H6.84596C5.73916 13.2985 4.67432 13.7143 3.85465 14.4581C3.03499 15.2019 2.51791 16.2215 2.40209 17.3223L0 39.8238H3.68722C4.79454 39.8159 5.8601 39.4003 6.6804 38.6564C7.50069 37.9126 8.01822 36.8926 8.13409 35.7914L9.05588 26.9096C9.15837 25.883 9.36665 24.8698 9.67742 23.886C9.976 23.1997 10.4089 22.58 10.9505 22.0634C11.5414 21.4116 12.2668 20.8959 13.0766 20.5522C13.8865 20.2085 14.7613 20.0448 15.6406 20.0726C16.5472 20.0947 17.4481 20.2227 18.325 20.454L20.4658 12.9474C20.0444 12.8263 19.615 12.7351 19.1807 12.6742Z" fill="white"/>
<path d="M35.5222 11.7188C31.2104 11.7188 27.5533 13.2981 24.5176 16.4058C23.0458 17.8759 21.8842 19.6266 21.1018 21.5541C20.3193 23.4816 19.932 25.5466 19.9626 27.6266C19.9626 31.4129 21.1006 34.3825 23.3766 36.5624C25.6526 38.7423 28.7453 39.8322 32.7027 39.8322C35.1216 39.8802 37.5233 39.4156 39.7499 38.469C41.7556 37.5682 43.7343 36.0459 45.7131 33.9201L45.8211 33.8119L42.6504 31.4399C42.1736 31.0666 41.5842 30.8662 40.9787 30.8716C40.3732 30.8771 39.7874 31.0881 39.3175 31.47C38.7465 31.9446 38.1446 32.3809 37.5159 32.7761C35.9966 33.6768 34.5884 34.1393 33.2612 34.1393C32.4779 34.1677 31.6968 34.0373 30.9651 33.7561C30.2335 33.4749 29.5662 33.0486 29.0035 32.5028C27.8655 31.4129 27.322 29.9716 27.322 28.173H47.1933C47.2376 27.5407 47.328 26.9126 47.4636 26.2935C47.5415 25.7421 47.5866 25.1867 47.5987 24.63C47.5987 20.6816 46.5148 17.5228 44.3469 15.2047C42.179 12.8867 39.2604 11.7188 35.5222 11.7188ZM27.8235 23.1617C28.424 21.282 29.3188 19.8378 30.5078 18.8289C31.6917 17.8171 33.2055 17.2744 34.7625 17.3036C36.417 17.3036 37.7171 17.8201 38.6389 18.856C39.5607 19.8919 40.0771 21.3361 40.0771 23.1617H27.8235Z" fill="white"/>
<path d="M73.2173 4.0403L71.9862 15.8886C70.6591 13.1112 68.2179 11.748 64.6418 11.748C60.7654 11.748 57.4566 13.3004 54.7332 16.4081C52.0098 19.5158 50.6406 23.272 50.6406 27.6558C50.6406 31.4451 51.6165 34.4118 53.5412 36.5647C55.4658 38.7175 58.0961 39.8075 61.402 39.8075C65.4675 39.8075 68.308 38.3062 69.9414 35.3666L69.5631 39.8075H73.2743C75.5533 39.8075 77.478 37.2462 77.7212 34.9582L81.3814 0.0078125H77.6642C76.5568 0.0157596 75.4913 0.431351 74.671 1.17521C73.8507 1.91907 73.3332 2.93904 73.2173 4.0403ZM69.449 30.8447C68.8198 31.614 68.0252 32.2314 67.1242 32.6509C66.2232 33.0705 65.2392 33.2814 64.2455 33.2678C62.4439 33.2678 61.0207 32.6972 59.9908 31.5532C58.9609 30.4092 58.4174 28.8299 58.4174 26.8391V25.9144C58.6876 23.6534 59.4743 21.8278 60.8195 20.4106C61.4428 19.734 62.2022 19.197 63.0478 18.8347C63.8933 18.4725 64.806 18.2932 65.7258 18.3087C67.4853 18.3087 68.8965 18.8793 69.9534 20.0503C71.0104 21.2213 71.5538 22.8036 71.5538 24.7373C71.5388 27.1935 70.8602 29.2112 69.449 30.8447Z" fill="white"/>
<path d="M86.1475 4.04033L82.4062 39.8345H86.1205C87.2325 39.8332 88.3047 39.4206 89.1306 38.6761C89.9566 37.9316 90.478 36.9079 90.5944 35.802L91.2429 29.5656L91.4621 27.4397L91.7053 24.9866L92.0296 21.9629L94.3086 0.00783586H90.6004C89.4891 0.00424091 88.4166 0.415671 87.5929 1.1616C86.7692 1.90753 86.2538 2.93417 86.1475 4.04033Z" fill="white"/>
<path d="M97.9188 15.6931L97.2402 21.9986L96.9129 25.0072L96.6427 27.4333L96.4235 29.5592L95.3125 39.8552H99.0147C100.125 39.8419 101.191 39.4209 102.011 38.6724C102.831 37.9238 103.347 36.9 103.462 35.7956L105.954 11.6876H102.378C101.269 11.6798 100.197 12.0862 99.3727 12.8271C98.5479 13.568 98.0295 14.59 97.9188 15.6931Z" fill="white"/>
<path d="M106.29 1.2016C105.446 0.412833 104.329 -0.017715 103.173 0.00055878C101.92 -0.0175821 100.704 0.428347 99.7595 1.25263C99.3171 1.60028 98.9583 2.04267 98.7095 2.54721C98.4606 3.05175 98.3279 3.6056 98.3212 4.16815C98.3092 4.71372 98.4173 5.25527 98.6379 5.75442C98.8584 6.25358 99.1859 6.69817 99.5973 7.0567C100.432 7.84069 101.543 8.26178 102.687 8.2277C103.96 8.2696 105.204 7.84215 106.182 7.02665C106.625 6.6817 106.983 6.23929 107.228 5.73368C107.473 5.22806 107.598 4.67284 107.593 4.11112C107.599 3.56075 107.486 3.01559 107.261 2.51327C107.036 2.01095 106.705 1.56344 106.29 1.2016Z" fill="white"/>
<path fill-rule="evenodd" clip-rule="evenodd" d="M128.319 12.5092C126.926 12.1278 125.487 11.9409 124.043 11.9537C119.923 11.9537 116.371 13.2899 113.417 15.9052C111.489 17.5873 110.024 19.734 109.159 22.1416C108.552 23.8463 108.247 25.6437 108.258 27.4532V27.5343C108.258 31.2395 109.459 34.2631 111.807 36.5421C114.155 38.8211 117.284 40.0042 121.115 40.0042C125.559 40.0042 129.308 38.5028 132.363 35.5002C135.429 32.4976 136.945 28.7713 136.945 24.3575C136.959 22.9664 136.766 21.5811 136.372 20.2469C135.603 20.5889 134.771 20.7648 133.93 20.7634C132.946 20.758 131.978 20.5131 131.11 20.0499C130.242 19.5867 129.499 18.919 128.947 18.1046C128.394 17.2902 128.048 16.3535 127.939 15.3755C127.83 14.3975 127.96 13.4075 128.319 12.4912V12.5092ZM121.737 33.4614C122.779 33.4787 123.812 33.2711 124.766 32.853C125.721 32.4349 126.574 31.8159 127.268 31.0383C128.787 29.4289 129.517 27.4141 129.517 25.0181C129.517 23.1114 128.916 21.5591 127.757 20.3581C126.643 19.133 125.127 18.5355 123.283 18.5355C122.325 18.5282 121.374 18.7101 120.486 19.0708C119.597 19.4315 118.789 19.9638 118.107 20.6373C116.62 22.0691 115.696 23.9869 115.503 26.042V26.9698C115.503 28.8764 116.074 30.4288 117.212 31.6539C118.35 32.8789 119.866 33.4614 121.737 33.4614Z" fill="white"/>
<path d="M137.38 14.7228C137.376 15.4031 137.17 16.0668 136.79 16.6304C136.409 17.194 135.869 17.6322 135.24 17.8897C134.61 18.1471 133.918 18.2123 133.251 18.077C132.585 17.9418 131.973 17.6121 131.494 17.1296C131.014 16.6471 130.688 16.0335 130.557 15.366C130.426 14.6985 130.495 14.0071 130.756 13.379C131.018 12.7509 131.459 12.2143 132.025 11.8368C132.591 11.4593 133.256 11.2578 133.936 11.2578C134.39 11.259 134.839 11.3495 135.258 11.5244C135.676 11.6992 136.056 11.9548 136.376 12.2766C136.696 12.5984 136.949 12.9801 137.122 13.3998C137.294 13.8196 137.382 14.2691 137.38 14.7228Z" fill="#FFB800"/>
</svg>
