<svg width="45" height="45" viewBox="0 0 45 45" fill="none" xmlns="http://www.w3.org/2000/svg">
<circle cx="22.5" cy="22.5" r="22.5" fill="white"/>
<path fill-rule="evenodd" clip-rule="evenodd" d="M26.3814 12.8947C25.3829 12.6213 24.3514 12.4873 23.3162 12.4965C20.3629 12.4965 17.8164 13.4544 15.6983 15.3293C14.3166 16.5352 13.2659 18.0742 12.646 19.8002C12.2109 21.0222 11.9923 22.3108 12.0002 23.608V23.6661C12.0002 26.3224 12.8612 28.49 14.5445 30.1238C16.2278 31.7576 18.4708 32.6057 21.2175 32.6057C24.4032 32.6057 27.0911 31.5295 29.2809 29.3769C31.4787 27.2243 32.5657 24.553 32.5657 21.3887C32.5758 20.3915 32.4372 19.3983 32.1546 18.4419C31.6038 18.687 31.0075 18.8132 30.4046 18.8121C29.6991 18.8083 29.0051 18.6327 28.3827 18.3006C27.7602 17.9685 27.2279 17.4899 26.8319 16.906C26.4358 16.3222 26.1878 15.6507 26.1093 14.9496C26.0308 14.2485 26.1242 13.5388 26.3814 12.8818V12.8947ZM21.663 27.9153C22.4099 27.9276 23.1507 27.7789 23.8349 27.4791C24.5192 27.1793 25.1308 26.7356 25.628 26.1782C26.7172 25.0244 27.2403 23.58 27.2403 21.8623C27.2403 20.4954 26.8098 19.3826 25.9789 18.5216C25.1803 17.6433 24.0933 17.2149 22.7716 17.2149C22.0843 17.2098 21.4028 17.3402 20.766 17.5987C20.1292 17.8573 19.5497 18.2389 19.0606 18.7217C17.9947 19.7482 17.3325 21.123 17.1943 22.5963V23.2614C17.1943 24.6283 17.6033 25.7412 18.4191 26.6195C19.2349 27.4977 20.322 27.9153 21.663 27.9153Z" fill="black"/>
<path d="M32.8793 14.4841C32.8764 14.9717 32.729 15.4476 32.4559 15.8516C32.1828 16.2556 31.7962 16.5698 31.3448 16.7543C30.8934 16.9389 30.3974 16.9856 29.9195 16.8887C29.4416 16.7917 29.003 16.5554 28.6592 16.2095C28.3155 15.8636 28.0818 15.4237 27.9878 14.9452C27.8937 14.4666 27.9435 13.9709 28.1308 13.5207C28.3181 13.0704 28.6345 12.6857 29.0402 12.4151C29.4459 12.1444 29.9227 12 30.4104 12C30.7356 12.0008 31.0575 12.0658 31.3577 12.1911C31.6578 12.3164 31.9303 12.4997 32.1596 12.7304C32.3889 12.9611 32.5705 13.2347 32.694 13.5356C32.8175 13.8365 32.8805 14.1588 32.8793 14.4841Z" fill="#FFB800"/>
</svg>
