<svg width="12" height="12" viewBox="0 0 12 12" fill="none" xmlns="http://www.w3.org/2000/svg">
<path d="M7.44836 0H0.827596C0.608104 0 0.397602 0.0871929 0.242397 0.242397C0.0871929 0.397602 0 0.608104 0 0.827596V10.7587C0 10.9782 0.0871929 11.1887 0.242397 11.3439C0.397602 11.4992 0.608104 11.5863 0.827596 11.5863H7.44836C7.66786 11.5863 7.87836 11.4992 8.03356 11.3439C8.18877 11.1887 8.27596 10.9782 8.27596 10.7587V8.27596H4.39867C4.28893 8.27596 4.18368 8.23236 4.10607 8.15476C4.02847 8.07716 3.98487 7.97191 3.98487 7.86216C3.98487 7.75242 4.02847 7.64716 4.10607 7.56956C4.18368 7.49196 4.28893 7.44836 4.39867 7.44836H8.27596V0.827596C8.27596 0.608104 8.18877 0.397602 8.03356 0.242397C7.87836 0.0871929 7.66786 0 7.44836 0Z" fill="#1F1F1F"/>
<path d="M9.58299 5.49525C9.50383 5.42746 9.40201 5.39204 9.29786 5.39606C9.19372 5.40008 9.09493 5.44326 9.02124 5.51695C8.94754 5.59065 8.90437 5.68944 8.90034 5.79358C8.89632 5.89772 8.93175 5.99955 8.99954 6.07871L10.3982 7.44838H8.27539V8.27597H10.3982L8.99954 9.70772C8.95622 9.74481 8.92104 9.79046 8.8962 9.8418C8.87136 9.89314 8.85741 9.94905 8.8552 10.006C8.853 10.063 8.86261 10.1199 8.88341 10.173C8.90421 10.2261 8.93577 10.2743 8.9761 10.3146C9.01642 10.3549 9.06465 10.3865 9.11775 10.4073C9.17085 10.4281 9.22768 10.4377 9.28467 10.4355C9.34165 10.4333 9.39757 10.4193 9.44891 10.3945C9.50025 10.3697 9.5459 10.3345 9.58299 10.2912L11.9996 7.89114L9.58299 5.49525Z" fill="#1F1F1F"/>
</svg>
