<svg width="14" height="9" viewBox="0 0 14 9" fill="none" xmlns="http://www.w3.org/2000/svg">
<path d="M8.3125 0.75H8.31259C8.54897 0.749971 8.78067 0.838135 8.96399 1.00339C9.14784 1.16913 9.27059 1.40171 9.30374 1.65977L9.43346 2.66954L10.3594 2.24632L13.0807 1.00253L13.0813 1.00221C13.0985 0.994331 13.1162 0.991447 13.1331 0.992812C13.1501 0.994179 13.1679 0.999953 13.1849 1.01132C13.2021 1.02278 13.2185 1.04001 13.2307 1.06311C13.2429 1.0863 13.25 1.11364 13.25 1.14241V7.85727C13.25 7.88601 13.2429 7.91333 13.2307 7.9365C13.2185 7.95957 13.2021 7.9768 13.185 7.98826L13.6015 8.61193L13.185 7.98826C13.168 7.99962 13.1501 8.0054 13.1332 8.00678L13.194 8.75431L13.1332 8.00678C13.1163 8.00816 13.0986 8.00529 13.0815 7.99745L13.0814 7.99744L10.3593 6.75364L9.43345 6.33059L9.30374 7.34023C9.27059 7.59829 9.14784 7.83087 8.96399 7.99661C8.78067 8.16187 8.54897 8.25003 8.31259 8.25H8.3125H1.75C1.49171 8.25 1.23958 8.14466 1.05031 7.94998L0.519557 8.46599L1.05031 7.94998C0.860342 7.75459 0.75 7.48519 0.75 7.2V1.8C0.75 1.51481 0.860342 1.24541 1.05031 1.05002C1.23958 0.85534 1.49171 0.75 1.75 0.75H8.3125Z" stroke="#FF701F" stroke-width="1.5"/>
</svg>
