<svg width="20" height="20" viewBox="0 0 20 20" fill="none" xmlns="http://www.w3.org/2000/svg">
<path fill-rule="evenodd" clip-rule="evenodd" d="M0 10C0 17.5488 1.765 19.1667 10 19.1667C18.235 19.1667 20 17.5488 20 10C20 7.92538 19.8667 6.29869 19.5024 5.03046C18.5696 5.96565 17.3925 7.09023 16.1139 8.09192C14.3007 9.51259 12.1046 10.8334 10 10.8334C7.89544 10.8334 5.69935 9.51259 3.88606 8.09192C2.60755 7.09023 1.43044 5.96565 0.497629 5.03046C0.133318 6.29869 0 7.92538 0 10ZM6.66667 13.3334C6.20643 13.3334 5.83333 13.7065 5.83333 14.1667C5.83333 14.6269 6.20643 15 6.66667 15H13.3333C13.7936 15 14.1667 14.6269 14.1667 14.1667C14.1667 13.7065 13.7936 13.3334 13.3333 13.3334H6.66667Z" fill="white"/>
<path d="M15.0861 6.77996C16.5045 5.66865 17.7997 4.38947 18.7761 3.3943C17.4526 1.39387 14.847 0.833374 10 0.833374C5.153 0.833374 2.54742 1.39387 1.22388 3.3943C2.20035 4.38947 3.4955 5.66865 4.91394 6.77996C6.70065 8.1798 8.50456 9.16671 10 9.16671C11.4954 9.16671 13.2993 8.1798 15.0861 6.77996Z" fill="white"/>
</svg>