<svg width="14" height="14" viewBox="0 0 14 14" fill="none" xmlns="http://www.w3.org/2000/svg">
<path d="M4.85001 12.2297C5.79438 13.2572 7.56819 13.3415 8.39763 12.3983" stroke="#15141A" stroke-linecap="round" stroke-linejoin="round"/>
<path d="M2.34234 10.0992L2.34219 10.0991L2.34194 10.099L2.34172 10.0989L2.34138 10.0988L2.34114 10.0987L2.32961 10.0943L2.31679 10.0902C1.94949 9.97268 1.68526 9.80989 1.51321 9.60767C1.34806 9.41356 1.23527 9.14538 1.23374 8.74669L1.23379 8.74669L1.23367 8.7399C1.22563 8.27799 1.50909 8.02699 2.01721 7.60355C2.24415 7.41444 2.53223 7.17349 2.72975 6.86332C2.94187 6.53022 3.04385 6.13065 2.95005 5.64901C2.81684 4.52363 3.20815 3.45196 3.87396 2.65661C4.54829 1.85108 5.46334 1.37481 6.32278 1.37707L6.6476 1.37792C7.50704 1.38018 8.42575 1.86127 9.10625 2.67036C9.77815 3.46922 10.1777 4.54297 10.0531 5.66767C9.9632 6.14724 10.0658 6.54615 10.2791 6.8801C10.4775 7.19089 10.7659 7.4324 10.9931 7.62189C11.4994 8.04426 11.7912 8.3002 11.7931 8.77451C11.7946 9.15663 11.6854 9.42627 11.5184 9.62577C11.3456 9.83213 11.0811 9.99847 10.7203 10.1123L10.7075 10.1164L10.696 10.1207L10.6958 10.1208L10.6954 10.1209L10.6952 10.121L10.695 10.1211L10.6948 10.1211L10.6857 10.1244C10.6766 10.1276 10.6616 10.1328 10.6408 10.1398C10.5991 10.1537 10.5339 10.1744 10.4459 10.1998C10.2698 10.2506 10.0024 10.3199 9.64827 10.3894C8.9401 10.5286 7.88506 10.669 6.5207 10.6654C5.15633 10.6618 4.1002 10.5158 3.39095 10.373C3.03628 10.3015 2.7683 10.2309 2.59187 10.1792C2.50365 10.1533 2.43833 10.1322 2.39651 10.1181C2.3756 10.1111 2.36057 10.1058 2.35149 10.1025L2.34234 10.0992Z" stroke="#15141A"/>
<ellipse cx="0.589894" cy="0.583339" rx="0.589894" ry="0.583339" transform="matrix(1 2.87913e-08 0.00645174 0.999979 5.82639 0.291016)" fill="#15141A"/>
</svg>
