<svg width="20" height="20" viewBox="0 0 20 20" fill="none" xmlns="http://www.w3.org/2000/svg">
<mask id="path-1-inside-1_1841_1282" fill="white">
<path d="M8.98459 20.0001C9.36315 19.9913 9.72644 19.849 10.0102 19.5983C10.2939 19.3475 10.4798 19.0045 10.5351 18.6299H7.37402C7.4308 19.0147 7.62542 19.3658 7.92168 19.6178C8.21794 19.8698 8.59566 20.0057 8.98459 20.0001Z"/>
</mask>
<path d="M8.98459 20.0001C9.36315 19.9913 9.72644 19.849 10.0102 19.5983C10.2939 19.3475 10.4798 19.0045 10.5351 18.6299H7.37402C7.4308 19.0147 7.62542 19.3658 7.92168 19.6178C8.21794 19.8698 8.59566 20.0057 8.98459 20.0001Z" fill="#1F1F1F"/>
<path d="M10.5351 18.6299L12.5137 18.9215L12.8514 16.6299H10.5351V18.6299ZM7.37402 18.6299V16.6299H5.05729L5.39544 18.9218L7.37402 18.6299ZM9.03063 21.9995C9.88106 21.9799 10.6972 21.6602 11.3346 21.0969L8.68578 18.0996C8.75571 18.0378 8.84525 18.0027 8.93854 18.0006L9.03063 21.9995ZM11.3346 21.0969C11.972 20.5336 12.3897 19.7631 12.5137 18.9215L8.55643 18.3383C8.57003 18.246 8.61586 18.1614 8.68578 18.0996L11.3346 21.0969ZM10.5351 16.6299H7.37402V20.6299H10.5351V16.6299ZM5.39544 18.9218C5.52298 19.7862 5.96019 20.5749 6.62572 21.1411L9.21763 18.0945C9.29065 18.1566 9.33861 18.2431 9.3526 18.338L5.39544 18.9218ZM6.62572 21.1411C7.29126 21.7073 8.1398 22.0125 9.0135 21.9999L8.95568 18.0003C9.05152 17.9989 9.14462 18.0324 9.21763 18.0945L6.62572 21.1411Z" fill="#1F1F1F" mask="url(#path-1-inside-1_1841_1282)"/>
<path d="M11.6886 2.62626L11.5025 3.00452L11.6886 3.00486M11.6886 2.62626V3.00486M11.6886 2.62626C11.0612 2.31748 10.387 2.11443 9.69343 2.0253L10.6886 3.00417V2.62626H11.6886ZM11.6886 3.00486C11.6867 4.04409 12.044 5.05205 12.7 5.85807C13.356 6.6641 14.2704 7.21867 15.2883 7.4279M11.6886 3.00486H11.5023L15.2883 7.4279M15.2883 7.4279C15.3499 7.78322 15.382 8.14301 15.3845 8.50361L15.2883 7.4279ZM15.3559 14.9057C15.7942 15.5839 16.3158 16.2042 16.9085 16.752V16.9987H1V16.7501C1.58562 16.1997 2.10038 15.5783 2.53223 14.9L2.55755 14.8602L2.57902 14.8182C3.09985 13.7998 3.41202 12.6875 3.4972 11.5468L3.49998 11.5096V11.4723L3.49998 8.50361L3.49998 8.50121C3.49679 7.17423 3.97378 5.89089 4.8429 4.88813C5.71202 3.88538 6.91458 3.2309 8.22856 3.04555L8.97145 2.94075L9.56598 3.01715C9.95185 3.06673 10.3306 3.15817 10.6955 3.28946C10.7542 4.45712 11.1833 5.57868 11.9244 6.4893C12.5695 7.28188 13.419 7.87547 14.3744 8.21029C14.3804 8.30909 14.3838 8.40808 14.3845 8.50714V11.4723V11.5096L14.3873 11.5468C14.4724 12.6875 14.7846 13.7998 15.3054 14.8182L15.3285 14.8632L15.3559 14.9057Z" fill="#1F1F1F" stroke="#1F1F1F" stroke-width="2"/>
<path d="M16.1962 6.00957C17.8557 6.00957 19.201 4.66428 19.201 3.00478C19.201 1.34529 17.8557 0 16.1962 0C14.5367 0 13.1914 1.34529 13.1914 3.00478C13.1914 4.66428 14.5367 6.00957 16.1962 6.00957Z" fill="#FF701F"/>
</svg>
