<svg width="14" height="16" viewBox="0 0 14 16" fill="none" xmlns="http://www.w3.org/2000/svg">
<path d="M7.48845 0.71642C7.48903 0.70466 7.48936 0.692858 7.48936 0.680973C7.48936 0.304934 7.18451 0.00012207 6.80851 0.00012207C6.43252 0.00012207 6.12766 0.304934 6.12766 0.680973C6.12766 0.692858 6.12799 0.704701 6.12858 0.716461C3.84932 1.04496 1.70463 3.60829 2.04256 6.4682C2.21759 7.34337 1.66648 7.80705 1.09284 8.28964C0.550787 8.74567 -0.0112968 9.21858 0.000172614 10.0716C0.000172614 11.2671 0.680857 11.915 1.68052 12.2363C1.68052 12.2363 3.51139 12.9363 6.8086 12.9363C10.1058 12.9363 11.9367 12.2363 11.9367 12.2363C12.9363 11.915 13.6172 11.2342 13.617 10.0716C13.6169 9.21122 13.0552 8.73811 12.5161 8.28419C11.9451 7.80327 11.3995 7.34387 11.5746 6.4682C11.9126 3.60821 9.76779 1.04484 7.48845 0.71642Z" fill="#15141A"/>
<path d="M4.37608 13.7533C4.07522 13.9789 4.0143 14.4057 4.23986 14.7065C5.5335 16.4313 8.12076 16.4313 9.4144 14.7065C9.63996 14.4057 9.57904 13.9789 9.27818 13.7533C8.97739 13.5277 8.55062 13.5887 8.32497 13.8895C7.57605 14.888 6.07821 14.888 5.32929 13.8895C5.10364 13.5887 4.67687 13.5277 4.37608 13.7533Z" fill="#15141A"/>
</svg>
