<svg width="299" height="93" viewBox="0 0 299 93" fill="none" xmlns="http://www.w3.org/2000/svg">
<path d="M125.941 53.5978V66.0947H115.249V23.0498H134.133C144.779 23.0498 151.953 28.8817 151.953 38.1849C151.953 44.202 148.852 48.9693 143.714 51.5613L154.776 66.141H141.863L132.606 53.6441H125.941V53.5978ZM133.856 43.9705C137.975 43.9705 141.261 41.7026 141.261 38.1387C141.261 34.6673 137.975 32.4456 133.856 32.4456H125.941V43.9705H133.856Z" fill="#292951"/>
<path d="M186.944 53.5512L186.991 53.7363H165.098C165.931 56.5134 168.06 58.6888 171.994 58.6888C174.17 58.6888 175.79 57.8557 176.669 56.4671H186.806C185.371 62.8082 179.446 66.7887 171.856 66.7887C161.766 66.7887 155.054 60.0774 155.054 50.6815C155.054 41.3783 161.58 34.667 171.393 34.667C180.326 34.667 187.083 40.8229 187.083 50.0798C187.13 51.1907 187.13 52.3941 186.944 53.5512ZM164.959 47.7193H177.502C176.947 44.3405 174.725 42.5817 171.439 42.5817C167.968 42.5817 165.746 44.6182 164.959 47.7193Z" fill="#292951"/>
<path d="M225.314 66.0943H215.039V64.5206C212.771 65.9555 209.994 66.8812 206.615 66.8812C198.33 66.8812 191.341 59.9847 191.341 50.774C191.341 41.6559 198.33 34.8058 206.615 34.8058C209.994 34.8058 212.771 35.6852 215.039 37.1663V21.1055H225.314V66.0943ZM215.085 55.5877V46.0993C213.188 43.8776 210.966 43.1833 208.698 43.1833C204.532 43.1833 201.478 46.6084 201.478 50.774C201.478 55.0785 204.532 58.4573 208.698 58.4573C210.966 58.411 213.188 57.7631 215.085 55.5877Z" fill="#292951"/>
<path d="M242.578 66.0943H232.303V21.1055H242.578V66.0943Z" fill="#292951"/>
<path d="M248.874 24.8085C248.874 21.4297 251.512 18.9766 254.891 18.9766C258.177 18.9766 260.908 21.4297 260.908 24.8085C260.908 28.0947 258.177 30.5941 254.891 30.5941C251.558 30.5478 248.874 28.0947 248.874 24.8085Z" fill="url(#paint0_linear_1841_749)"/>
<path d="M260.12 35.3613H249.845V66.0945H260.12V35.3613Z" fill="#292951"/>
<path d="M299 50.6815C299 60.0774 292.011 67.0201 282.337 67.0201C272.664 67.0201 265.675 60.0311 265.675 50.6815C265.675 41.4246 272.664 34.667 282.337 34.667C292.011 34.667 299 41.4246 299 50.6815ZM289.28 50.7741C289.28 46.7936 286.503 43.5537 282.384 43.5537C278.218 43.5537 275.395 46.7936 275.395 50.7741C275.395 54.8935 278.172 58.1797 282.384 58.1797C286.503 58.1797 289.28 54.8935 289.28 50.7741Z" fill="#292951"/>
<path d="M76.7866 26.4972C77.7586 26.1269 78.314 25.2938 79.3323 23.6275C80.3505 22.0538 81.1836 20.6653 81.1836 18.7213C81.1836 18.1659 81.0911 15.7591 79.3323 14.3243C78.4066 13.5374 77.3883 13.3986 77.1569 13.3523C76.1386 13.2134 75.3518 13.5374 74.7501 13.7688C73.4541 14.278 72.621 15.1111 72.1581 15.6202C71.1398 16.6385 70.6307 17.6568 70.353 18.2585C69.8901 19.2304 69.5199 19.971 69.4273 20.7116C69.1959 23.6275 73.8244 27.6543 76.7866 26.4972Z" fill="#FFE4CC"/>
<path d="M77.6197 24.1829C45.2203 -28.2115 0 20.8504 0 20.8504C0 20.8504 19.1619 12.7043 29.7611 22.2853C29.7611 22.2853 0 30.524 6.24845 67.8295C6.24845 67.8295 15.1814 45.5203 37.6758 56.9989C37.6758 56.9989 15.922 59.4057 26.3361 92.4068C26.3361 92.4068 40.5918 73.6152 50.219 78.2436C53.6441 79.8636 52.7184 88.2874 52.7184 88.2874C52.7184 88.2874 58.6892 76.7162 63.3639 78.1973C63.3639 78.1973 65.3542 81.5761 60.6794 88.2411C60.6794 88.2411 70.5844 85.0012 72.2043 77.0865C72.2043 77.0865 79.0545 79.2156 77.6197 85.8343C77.6197 85.8343 97.9387 70.9306 87.5246 52.0464C87.5246 52.0464 81.5076 30.4314 77.6197 24.1829Z" fill="url(#paint1_linear_1841_749)"/>
<path d="M44.2019 40.0588C42.8134 40.3365 41.6563 39.7811 39.3883 38.7166C37.2129 37.6983 35.3152 36.8189 34.1118 34.7361C33.7878 34.1344 32.353 31.4961 33.4638 28.7191C34.0655 27.2379 35.1301 26.4048 35.4078 26.1734C36.5186 25.3403 37.6295 25.1088 38.4626 24.97C40.314 24.646 41.7951 24.97 42.6745 25.1551C44.4796 25.5717 45.7293 26.3122 46.4699 26.7751C47.627 27.4694 48.5527 28.0248 49.0618 28.7653C51.1909 31.8201 48.3676 39.272 44.2019 40.0588Z" fill="#FFE4CC"/>
<path d="M74.5184 37.4667C74.5184 37.4667 60.6793 17.4716 72.4819 16.7773C72.4819 16.7773 85.7657 25.8955 88.6353 40.7992C91.3661 55.4715 74.5184 37.4667 74.5184 37.4667Z" fill="#FFC76E"/>
<path d="M46.2382 62.1828C46.2382 62.1828 29.3443 40.0587 52.1627 22.5168C55.0324 20.3414 64.6596 13.4912 70.3526 38.6239C76.0457 63.7565 46.2382 62.1828 46.2382 62.1828Z" fill="#FFC76E"/>
<path d="M46.2383 62.183C46.2383 62.183 55.0787 30.5704 88.774 41.8639C88.774 41.8639 91.7826 58.8042 74.3332 65.608C65.6779 68.9868 49.4319 66.3486 46.2383 62.183Z" fill="white"/>
<path d="M74.8427 52.1855L73.6855 52.0004C74.0095 49.501 73.6855 42.0491 73.6855 42.0028L74.8427 41.9565C74.889 42.2343 75.2129 49.5935 74.8427 52.1855Z" fill="#22212D"/>
<path d="M68.5479 39.0404C68.5479 39.0404 70.7695 36.5873 75.9072 37.0964C75.9072 37.0964 78.8231 37.6518 76.8791 40.7529C74.9352 43.854 71.325 43.1134 68.1776 40.7529C68.2239 40.7529 67.4833 39.6884 68.5479 39.0404Z" fill="#22212D"/>
<path d="M71.8344 53.0647C66.2339 53.0647 64.1974 47.2791 64.1511 47.2328C64.0122 46.9088 64.1974 46.4923 64.5676 46.3997C64.8916 46.2609 65.3082 46.446 65.4008 46.8163C65.4933 47.094 67.8076 53.435 74.38 51.3522C80.3508 49.4545 80.1194 43.0672 80.0731 42.7895C80.0731 42.4192 80.3508 42.0952 80.7211 42.0952C81.0913 42.0952 81.4153 42.3729 81.4153 42.7432C81.4153 42.8358 81.7856 50.4265 74.7966 52.6482C73.6858 52.9259 72.7138 53.0647 71.8344 53.0647Z" fill="#22212D"/>
<path d="M59.044 39.3696C60.3635 39.0618 61.0894 37.339 60.6654 35.5216C60.2415 33.7043 58.8281 32.4805 57.5087 32.7884C56.1893 33.0962 55.4633 34.819 55.8873 36.6363C56.3113 38.4537 57.7246 39.6774 59.044 39.3696Z" fill="#22212D"/>
<path d="M77.3857 35.5895C78.2819 35.3805 78.7213 33.9799 78.367 32.4613C78.0127 30.9427 76.999 29.8811 76.1027 30.0902C75.2065 30.2993 74.7672 31.6998 75.1215 33.2184C75.4757 34.737 76.4895 35.7986 77.3857 35.5895Z" fill="#22212D"/>
<path opacity="0.5" d="M58.0408 43.5002C59.6347 42.58 60.6367 41.3315 60.2788 40.7117C59.9209 40.0918 58.3387 40.3354 56.7448 41.2556C55.151 42.1759 54.149 43.4244 54.5069 44.0442C54.8647 44.664 56.4469 44.4205 58.0408 43.5002Z" fill="#FE4F28"/>
<path opacity="0.5" d="M82.8518 37.7351C82.9724 37.212 82.0203 36.5458 80.7251 36.247C79.4299 35.9481 78.282 36.1299 78.1614 36.653C78.0407 37.1761 78.9929 37.8423 80.2881 38.1411C81.5833 38.44 82.7311 38.2582 82.8518 37.7351Z" fill="#FE4F28"/>
<path d="M30.3168 8.30718C30.6871 8.02947 31.0573 7.79805 31.4739 7.61291C31.8442 7.42777 32.2607 7.19635 32.6773 7.01121C33.5104 6.64093 34.3436 6.36322 35.1767 6.08551C36.8892 5.57638 38.6481 5.29867 40.4532 5.2061C44.0171 5.02096 47.6736 5.57638 51.0524 6.87235C51.8855 7.19635 52.7186 7.56663 53.5518 7.93691L54.7552 8.58489C55.1717 8.81632 55.542 9.04774 55.9123 9.27917C57.4397 10.2511 58.8745 11.362 60.1242 12.6117C62.6699 15.1111 64.7064 18.0733 65.8635 21.4521V21.4984C65.9098 21.5909 65.8635 21.6835 65.771 21.7298C65.7247 21.7298 65.6321 21.7298 65.5858 21.6835C65.0304 21.0818 64.5213 20.4338 63.9659 19.8321L63.0864 18.9527L62.6699 18.4898L62.207 18.0733L61.3276 17.2402C61.0499 16.9624 60.7259 16.6847 60.4019 16.407C59.8002 15.8516 59.1059 15.3425 58.458 14.8796C57.1157 13.9076 55.7734 12.982 54.2923 12.2414C53.5981 11.8248 52.8112 11.5008 52.0707 11.1306C51.3301 10.8066 50.5433 10.4826 49.8027 10.2049C46.7479 9.04774 43.508 8.30718 40.2217 8.07576C38.6018 7.93691 36.9355 7.9369 35.2693 8.02947C33.6493 8.07576 31.983 8.2609 30.4094 8.63118C30.3168 8.63118 30.2242 8.58489 30.2242 8.49232C30.1779 8.44604 30.2242 8.39975 30.3168 8.30718Z" fill="white"/>
<g opacity="0.7">
<path opacity="0.7" d="M39.5272 16.4532C40.3604 15.62 41.3786 15.0183 42.3969 14.4629C42.906 14.1852 43.4615 14.0001 44.0169 13.7686C44.5723 13.5372 45.1277 13.3984 45.6831 13.2595C47.9511 12.6578 50.3579 12.519 52.7184 12.8429C53.3201 12.9355 53.8755 13.0281 54.4772 13.1669C55.0327 13.3521 55.6344 13.4447 56.1898 13.6761C57.3006 14.0464 58.3652 14.5555 59.3834 15.1572C61.42 16.3606 63.1788 17.888 64.4748 19.832C64.5211 19.8782 64.4748 19.9245 64.4285 19.9708C64.3822 20.0171 64.3359 19.9708 64.3359 19.9708C63.8731 19.6468 63.4565 19.3228 62.9936 18.9988C62.5308 18.7211 62.068 18.3508 61.6051 18.1194L60.9108 17.7029C60.6794 17.564 60.448 17.4251 60.1703 17.2863C59.7074 17.0086 59.1983 16.7772 58.6892 16.5457C57.6709 16.0829 56.6526 15.7126 55.5881 15.4349C54.5235 15.1109 53.459 14.8795 52.3944 14.7406C50.219 14.4166 47.9974 14.4166 45.8683 14.7406C44.8037 14.8795 43.6929 15.1109 42.6746 15.4349C41.6101 15.7589 40.5918 16.0829 39.6198 16.592C39.5735 16.6383 39.5272 16.592 39.481 16.5457C39.481 16.5457 39.481 16.4994 39.5272 16.4532Z" fill="white"/>
</g>
<g opacity="0.5">
<path opacity="0.5" d="M11.1548 52.8797C11.6639 51.8615 12.4045 50.982 13.145 50.1489C13.9319 49.3158 14.765 48.5752 15.6907 47.881C16.6164 47.1867 17.5884 46.6313 18.6066 46.0758C19.6249 45.5667 20.7357 45.1502 21.8003 44.8262C24.022 44.1782 26.3362 43.9005 28.6042 44.0856C30.8721 44.2245 33.1401 44.7799 35.1766 45.7056C35.2229 45.7056 35.2229 45.7519 35.2229 45.7981C35.2229 45.8444 35.1766 45.8444 35.1766 45.8444C33.0475 45.289 30.8258 45.0113 28.6505 45.0113C27.5396 45.0113 26.4751 45.1039 25.3642 45.2427C24.2997 45.3816 23.1888 45.613 22.1706 45.937C20.0415 46.5387 18.0512 47.4644 16.1998 48.6678C14.3484 49.8712 12.6359 51.306 11.2474 52.9723C11.2474 53.0186 11.2011 53.0186 11.1548 52.9723C11.1548 52.926 11.1548 52.926 11.1548 52.8797Z" fill="white"/>
</g>
<g opacity="0.5">
<path opacity="0.5" d="M30.3167 79.5398C30.2704 78.0586 30.7332 76.5775 31.3812 75.2815C31.5664 74.9576 31.7052 74.6336 31.9366 74.3096C32.1681 73.9856 32.3532 73.7079 32.5846 73.3839C32.816 73.1062 33.0938 72.8285 33.3252 72.5507C33.6029 72.273 33.8806 72.0416 34.1583 71.7639C34.436 71.4862 34.76 71.3011 35.0377 71.0696C35.3617 70.8382 35.6394 70.6068 35.9634 70.4679L36.9817 69.9588C37.3057 69.7737 37.676 69.6811 38.0462 69.5422C38.7405 69.2645 39.4811 69.172 40.2216 69.0331L40.4993 68.9868H40.777C40.9622 68.9868 41.1473 68.9868 41.3325 68.9868C41.7027 68.9868 42.073 68.9868 42.4433 69.0331C42.4896 69.0331 42.4896 69.0794 42.4896 69.0794C42.4896 69.1257 42.4896 69.1257 42.4433 69.1257L41.425 69.3571L40.9159 69.4959L40.6382 69.5422L40.4068 69.6348C39.7588 69.8662 39.0645 70.0514 38.4628 70.3754C37.1668 70.9308 36.0097 71.7176 34.9451 72.6433C33.8806 73.5227 32.9549 74.6336 32.2143 75.7907C32.0292 76.0684 31.8441 76.3924 31.6589 76.7164C31.4738 77.0404 31.3349 77.3181 31.1961 77.6421C30.9184 78.2901 30.6407 78.9381 30.4555 79.586C30.4555 79.6323 30.4092 79.6323 30.3629 79.6323C30.3167 79.6323 30.3167 79.586 30.3167 79.5398Z" fill="white"/>
</g>
<g opacity="0.5">
<path opacity="0.5" d="M82.3407 63.9417C83.1739 64.8211 83.7293 65.9319 84.0996 67.1353C84.2847 67.737 84.3773 68.3387 84.4698 68.9405C84.5161 69.2644 84.5161 69.5422 84.5161 69.8661C84.5161 70.1901 84.5161 70.4679 84.5161 70.7918C84.4236 72.0415 84.1458 73.2449 83.5904 74.3558C83.359 74.9112 82.9887 75.4203 82.6647 75.9295C82.2944 76.4386 81.8779 76.8552 81.4613 77.2717H81.415V77.2254C81.6927 76.7163 82.063 76.2535 82.2945 75.698C82.5259 75.1426 82.8499 74.6335 82.9887 74.0781C83.4053 72.9672 83.6367 71.8101 83.7293 70.653C83.8219 69.4959 83.7293 68.2925 83.4979 67.1816C83.2664 66.0245 82.8499 64.9137 82.2482 63.8954V63.8491C82.2945 63.9417 82.3407 63.9417 82.3407 63.9417Z" fill="white"/>
</g>
<g opacity="0.5">
<path opacity="0.5" d="M68.2237 70.2827C68.9643 70.8381 69.4734 71.625 69.8437 72.4581C70.0288 72.8747 70.1677 73.3375 70.3065 73.7541C70.3528 73.9855 70.3991 74.2169 70.3991 74.4483C70.4454 74.6798 70.4454 74.9112 70.4454 75.1426C70.4454 76.0683 70.3528 76.994 69.9825 77.8734C69.8437 78.29 69.6122 78.7066 69.3808 79.0768C69.1494 79.4471 68.8254 79.8174 68.5477 80.1414H68.5014V80.0951C68.6865 79.7248 68.8717 79.3083 69.0568 78.938C69.1957 78.5214 69.3808 78.1511 69.4734 77.7346C69.7048 76.9014 69.7974 76.0683 69.7511 75.1889C69.7511 74.3558 69.6122 73.4764 69.3345 72.6895C69.0568 71.8564 68.6865 71.0696 68.2237 70.3753V70.2827C68.2237 70.2827 68.1774 70.2827 68.2237 70.2827Z" fill="white"/>
</g>
<defs>
<linearGradient id="paint0_linear_1841_749" x1="248.891" y1="24.7853" x2="260.925" y2="24.7853" gradientUnits="userSpaceOnUse">
<stop stop-color="#FF2A7D"/>
<stop offset="1" stop-color="#FF2A7D"/>
</linearGradient>
<linearGradient id="paint1_linear_1841_749" x1="0" y1="46.2034" x2="90.4945" y2="46.2034" gradientUnits="userSpaceOnUse">
<stop stop-color="#FF2A7D"/>
<stop offset="0.1495" stop-color="#FF3466"/>
<stop offset="0.5451" stop-color="#FE4C2F"/>
<stop offset="0.8405" stop-color="#FE5A0D"/>
<stop offset="1" stop-color="#FE6000"/>
</linearGradient>
</defs>
</svg>
