<svg width="14" height="18" viewBox="0 0 14 18" fill="none" xmlns="http://www.w3.org/2000/svg">
<path d="M11.2473 13.9249H13.7637L10.0484 17.4974L10.0483 15.0805C10.0495 14.7744 10.1761 14.4811 10.4008 14.2647C10.6253 14.0481 10.9297 13.9261 11.2473 13.9249ZM14 1.96134V13.1112H11.2473C10.7055 13.1116 10.1861 13.3192 9.80299 13.6885C9.41985 14.0577 9.20441 14.5584 9.20396 15.0805V17.7333H2.03497C1.49532 17.7332 0.977868 17.5264 0.596197 17.1587C0.214678 16.7911 0.000150783 16.2922 0 15.7721V1.9612C0.00014724 1.44111 0.214689 0.942272 0.596197 0.574584C0.977868 0.206895 1.49532 0.000145317 2.03497 0H11.9648C12.5045 0.000141902 13.0219 0.206906 13.4036 0.574584C13.7851 0.942272 13.9996 1.44111 13.9998 1.9612L14 1.96134ZM5.04121 7.77911C5.04327 7.47642 4.91944 7.18549 4.69724 6.97137C4.47504 6.75737 4.17319 6.63788 3.85911 6.63986H2.72763C2.49439 6.63986 2.30548 6.82208 2.30548 7.04672V9.96014C2.30548 10.068 2.34995 10.1714 2.42916 10.2478C2.50824 10.3241 2.61573 10.367 2.72764 10.367C2.95926 10.3635 3.14625 10.1834 3.14979 9.96015V8.91031H3.85908C4.1711 8.91031 4.47062 8.79139 4.69208 8.57951C4.91354 8.36763 5.039 8.07996 5.04121 7.77911ZM8.36817 7.77102C8.36876 7.47088 8.24536 7.18282 8.02508 6.97051C7.80479 6.7582 7.50589 6.63929 7.19445 6.63985H6.05445C5.82136 6.63985 5.6323 6.82207 5.6323 7.04671V9.96013C5.6323 10.068 5.67677 10.1714 5.75599 10.2478C5.83521 10.3241 5.94255 10.367 6.05446 10.367H7.19446C7.50589 10.3676 7.80479 10.2486 8.02509 10.0363C8.24538 9.82404 8.36877 9.53597 8.36818 9.23582L8.36817 7.77102ZM11.7203 7.04669C11.7203 6.93884 11.6758 6.83539 11.5968 6.75904C11.5176 6.68269 11.4102 6.63983 11.2981 6.63983H9.39836C9.16511 6.63983 8.97605 6.82205 8.97605 7.04668V9.96011C8.97605 10.1848 9.16512 10.367 9.39836 10.367C9.63145 10.367 9.82051 10.1847 9.82051 9.96011V8.91027H10.8C11.0331 8.91027 11.2222 8.7282 11.2222 8.50342C11.2222 8.27864 11.0331 8.09656 10.8 8.09656H9.82051V7.45372H11.2981C11.5298 7.45017 11.7168 7.27006 11.7203 7.04669ZM3.85937 7.45354L3.14994 7.45369V8.09653H3.85922C4.04255 8.09653 4.19245 7.95576 4.19701 7.77908C4.19951 7.69209 4.16476 7.60779 4.10086 7.5462C4.03695 7.48461 3.94963 7.45112 3.85922 7.45367L3.85937 7.45354ZM7.1947 7.45354H6.47701V9.55312H7.1947H7.19455C7.37449 9.54886 7.51938 9.40922 7.5238 9.23581V7.77101C7.51938 7.5976 7.37449 7.45795 7.19455 7.4537L7.1947 7.45354Z" fill="#E2574C"/>
</svg>
