<svg width="14" height="14" viewBox="0 0 14 14" fill="none" xmlns="http://www.w3.org/2000/svg">
<path d="M13.382 7.45052C13.439 7.23666 13.4601 7.15662 13.4809 6.98647C13.5014 6.81918 13.5002 6.70744 13.4953 6.41284C13.451 3.78102 13.0824 2.38868 12.214 1.60225C11.3307 0.802373 9.79577 0.5 7 0.499999C4.20423 0.499999 2.66932 0.802372 1.78604 1.60225C0.917599 2.38868 0.548998 3.78102 0.504725 6.41284C0.499769 6.70744 0.498599 6.81918 0.519095 6.98647C0.539938 7.15662 0.56096 7.23666 0.617996 7.45052L0.134881 7.57936L0.617997 7.45052C1.56597 11.0051 4.41655 12.5657 6.032 13.1798C6.23652 13.2576 6.35153 13.3004 6.47863 13.3289C6.59961 13.356 6.74788 13.3733 7 13.3733C7.25212 13.3733 7.40038 13.356 7.52137 13.3289C7.64846 13.3004 7.76348 13.2576 7.968 13.1798C9.58345 12.5657 12.434 11.0051 13.382 7.45052Z" stroke="#15141A" stroke-linecap="round" stroke-linejoin="round"/>
<path fill-rule="evenodd" clip-rule="evenodd" d="M7.50008 4.08398C7.50008 3.80784 7.27622 3.58398 7.00008 3.58398C6.72394 3.58398 6.50008 3.80784 6.50008 4.08398V7.58398C6.50008 7.86013 6.72394 8.08398 7.00008 8.08398C7.27622 8.08398 7.50008 7.86013 7.50008 7.58398V4.08398ZM7.00008 8.75065C6.67792 8.75065 6.41675 9.01182 6.41675 9.33398C6.41675 9.65615 6.67792 9.91732 7.00008 9.91732C7.32225 9.91732 7.58341 9.65615 7.58341 9.33398C7.58341 9.01182 7.32225 8.75065 7.00008 8.75065Z" fill="#15141A"/>
</svg>
