<svg width="50" height="50" viewBox="0 0 50 50" fill="none" xmlns="http://www.w3.org/2000/svg">
<circle cx="25" cy="25" r="25" fill="url(#paint0_linear_1_5)"/>
<circle cx="25" cy="25" r="24" stroke="white" stroke-opacity="0.3" stroke-width="2"/>
<g filter="url(#filter0_d_1_5)">
<path d="M27.5 13.8333C27.5 13.3731 27.8731 13 28.3333 13C28.7936 13 29.1667 13.3731 29.1667 13.8333V17.1667C29.1667 17.6269 28.7936 18 28.3333 18C27.8731 18 27.5 17.6269 27.5 17.1667V13.8333Z" fill="white"/>
<path d="M26.6667 14.6954C26.143 14.6757 25.588 14.6667 25 14.6667C24.412 14.6667 23.857 14.6757 23.3333 14.6954V17.1667C23.3333 18.0871 22.5871 18.8333 21.6667 18.8333C20.7462 18.8333 20 18.0871 20 17.1667V15.063C17.0769 15.7023 15.7562 17.2267 15.2567 20.4174C15.1804 20.9051 15.5687 21.3333 16.0623 21.3333H33.9377C34.4313 21.3333 34.8196 20.9051 34.7433 20.4174C34.2438 17.2267 32.9231 15.7023 30 15.063V17.1667C30 18.0871 29.2538 18.8333 28.3333 18.8333C27.4129 18.8333 26.6667 18.0871 26.6667 17.1667V14.6954Z" fill="white"/>
<path fill-rule="evenodd" clip-rule="evenodd" d="M25 34.6667C16.765 34.6667 15 32.9017 15 24.6667C15 24.3702 15.0023 24.0821 15.0071 23.8022C15.0148 23.3543 15.3832 23 15.8313 23H34.1687C34.6168 23 34.9852 23.3543 34.9929 23.8022C34.9977 24.0821 35 24.3702 35 24.6667C35 32.9017 33.235 34.6667 25 34.6667ZM19.1667 26.3333C19.1667 25.8731 19.5398 25.5 20 25.5H22.5C22.9602 25.5 23.3333 25.8731 23.3333 26.3333C23.3333 26.7936 22.9602 27.1667 22.5 27.1667H20C19.5398 27.1667 19.1667 26.7936 19.1667 26.3333ZM20 28.8333C19.5398 28.8333 19.1667 29.2064 19.1667 29.6667C19.1667 30.1269 19.5398 30.5 20 30.5H22.5C22.9602 30.5 23.3333 30.1269 23.3333 29.6667C23.3333 29.2064 22.9602 28.8333 22.5 28.8333H20ZM26.6667 26.3333C26.6667 25.8731 27.0398 25.5 27.5 25.5H30C30.4602 25.5 30.8333 25.8731 30.8333 26.3333C30.8333 26.7936 30.4602 27.1667 30 27.1667H27.5C27.0398 27.1667 26.6667 26.7936 26.6667 26.3333ZM27.5 28.8333C27.0398 28.8333 26.6667 29.2064 26.6667 29.6667C26.6667 30.1269 27.0398 30.5 27.5 30.5H30C30.4602 30.5 30.8333 30.1269 30.8333 29.6667C30.8333 29.2064 30.4602 28.8333 30 28.8333H27.5Z" fill="white"/>
<path d="M20.8333 13.8333C20.8333 13.3731 21.2064 13 21.6667 13C22.1269 13 22.5 13.3731 22.5 13.8333V17.1667C22.5 17.6269 22.1269 18 21.6667 18C21.2064 18 20.8333 17.6269 20.8333 17.1667V13.8333Z" fill="white"/>
</g>
<defs>
<filter id="filter0_d_1_5" x="11" y="13" width="28" height="29.6667" filterUnits="userSpaceOnUse" color-interpolation-filters="sRGB">
<feFlood flood-opacity="0" result="BackgroundImageFix"/>
<feColorMatrix in="SourceAlpha" type="matrix" values="0 0 0 0 0 0 0 0 0 0 0 0 0 0 0 0 0 0 127 0" result="hardAlpha"/>
<feOffset dy="4"/>
<feGaussianBlur stdDeviation="2"/>
<feComposite in2="hardAlpha" operator="out"/>
<feColorMatrix type="matrix" values="0 0 0 0 0 0 0 0 0 0 0 0 0 0 0 0 0 0 0.25 0"/>
<feBlend mode="normal" in2="BackgroundImageFix" result="effect1_dropShadow_1_5"/>
<feBlend mode="normal" in="SourceGraphic" in2="effect1_dropShadow_1_5" result="shape"/>
</filter>
<linearGradient id="paint0_linear_1_5" x1="25" y1="0" x2="25" y2="50" gradientUnits="userSpaceOnUse">
<stop stop-color="#90DF75"/>
<stop offset="1" stop-color="#62B655"/>
</linearGradient>
</defs>
</svg>
