<svg width="22" height="20" viewBox="0 0 22 20" fill="none" xmlns="http://www.w3.org/2000/svg">
<path fill-rule="evenodd" clip-rule="evenodd" d="M0 9.99993C0 18.2349 0.882504 19.9999 5.00002 19.9999C9.11754 19.9999 10 18.2349 10 9.99993C10 1.76499 9.11754 0 5.00002 0C0.882504 0 0 1.76499 0 9.99993ZM5.83333 14.9999C5.83333 15.4602 5.46024 15.8333 5 15.8333C4.53976 15.8333 4.16666 15.4602 4.16666 14.9999C4.16666 14.5397 4.53976 14.1666 5 14.1666C5.46024 14.1666 5.83333 14.5397 5.83333 14.9999Z" fill="white"/>
<path d="M11.7264 16.3522C11.3927 16.6333 10.8862 16.2932 10.9556 15.8607C11.1918 14.3875 11.25 12.4634 11.25 9.99991C11.25 7.30539 11.1804 5.25623 10.8843 3.73652C10.8523 3.57201 10.9093 3.40009 11.0364 3.29182C14.54 0.3075 16.197 0.389003 18.5102 2.70214C21.4217 5.61363 20.7977 7.48568 14.9746 13.3087C13.7268 14.5564 12.6605 15.5655 11.7264 16.3522Z" fill="white"/>
<path d="M10.8398 19.9968C10.4121 19.9933 10.2298 19.4399 10.5589 19.1648C11.9172 18.0294 13.5286 16.501 15.4961 14.5335C16.8557 13.1739 18.0057 11.9843 18.9612 10.9308C19.0839 10.7955 19.2761 10.745 19.4443 10.8147C21.1641 11.527 21.6667 12.803 21.6667 15C21.6667 19.1175 19.9017 20 11.6666 20C11.3834 20 11.1079 19.999 10.8398 19.9968Z" fill="white"/>
</svg>
