<svg width="50" height="50" viewBox="0 0 50 50" fill="none" xmlns="http://www.w3.org/2000/svg">
<circle cx="25" cy="25" r="25" fill="url(#paint0_linear_1_19)"/>
<circle cx="25" cy="25" r="24" stroke="white" stroke-opacity="0.3" stroke-width="2"/>
<g filter="url(#filter0_d_1_19)">
<path fill-rule="evenodd" clip-rule="evenodd" d="M35 25C35 16.765 33.235 15 25 15C16.765 15 15 16.765 15 25C15 33.235 16.765 35 25 35C33.235 35 35 33.235 35 25ZM29.1667 32.5C29.6269 32.5 30 32.1269 30 31.6667C30 31.2064 29.6269 30.8333 29.1667 30.8333L20.8333 30.8333C20.3731 30.8333 20 31.2064 20 31.6667C20 32.1269 20.3731 32.5 20.8333 32.5H29.1667ZM25 17.4998C25.4942 17.4998 25.7416 17.4998 25.9363 17.5798C26.0647 17.6325 26.1814 17.7099 26.2799 17.8077C26.3783 17.9055 26.4565 18.0218 26.51 18.1498C26.5595 18.2672 26.5784 18.404 26.5863 18.604C26.5898 18.7485 26.63 18.8897 26.7032 19.0143C26.7764 19.1389 26.8802 19.2428 27.0047 19.3161C27.1317 19.3868 27.2746 19.4242 27.4199 19.425C27.5653 19.4257 27.7085 19.3897 27.8363 19.3203C28.0142 19.2267 28.1431 19.1751 28.2705 19.1582C28.5491 19.1216 28.8309 19.1965 29.0547 19.3667C29.2213 19.494 29.3442 19.705 29.5896 20.1263L29.5925 20.1314C29.8399 20.5561 29.963 20.7688 29.9909 20.9761C30.0091 21.1133 29.9999 21.2527 29.9638 21.3864C29.9278 21.52 29.8656 21.6451 29.7809 21.7545C29.7025 21.8556 29.5925 21.9403 29.422 22.0472C29.1715 22.203 29.0104 22.4693 29.0104 22.763C29.0104 23.0567 29.1715 23.323 29.4225 23.4793C29.5925 23.5856 29.7025 23.6703 29.7804 23.7714C29.8652 23.8808 29.9275 24.0059 29.9636 24.1395C29.9997 24.2731 30.009 24.4126 29.9909 24.5498C29.963 24.7577 29.8399 24.9698 29.5925 25.3945C29.3457 25.8193 29.222 26.0319 29.0547 26.1593C28.8315 26.3293 28.5494 26.4045 28.2705 26.3677C28.1431 26.3509 28.0142 26.2993 27.8363 26.2056C27.7086 26.1363 27.5655 26.1004 27.4202 26.1011C27.2749 26.1018 27.1322 26.1392 27.0052 26.2098C26.7489 26.3567 26.5968 26.6282 26.5863 26.9219C26.5784 27.1219 26.5595 27.2588 26.51 27.3761C26.4019 27.6347 26.1955 27.8397 25.9363 27.9461C25.7416 28.0261 25.4942 28.0261 25 28.0261C24.5058 28.0261 24.2585 28.0261 24.0637 27.9461C23.8037 27.8393 23.5974 27.634 23.4901 27.3761C23.4406 27.2588 23.4217 27.1219 23.4138 26.9219C23.4027 26.6282 23.2511 26.3572 22.9953 26.2098C22.8683 26.1391 22.7255 26.1017 22.5801 26.101C22.4347 26.1002 22.2915 26.1362 22.1638 26.2056C21.9859 26.2993 21.857 26.3509 21.7296 26.3677C21.4507 26.404 21.1686 26.3293 20.9454 26.1593C20.7787 26.0319 20.6559 25.821 20.4105 25.3996L20.4075 25.3945C20.1602 24.9698 20.037 24.7572 20.0091 24.5498C19.991 24.4126 20.0002 24.2732 20.0362 24.1396C20.0723 24.006 20.1344 23.8808 20.2191 23.7714C20.2975 23.6703 20.4075 23.5856 20.578 23.4788C20.8286 23.323 20.9896 23.0567 20.9896 22.763C20.9896 22.4693 20.8286 22.203 20.5775 22.0467C20.4075 21.9403 20.2975 21.8556 20.2196 21.7545C20.0481 21.533 19.9723 21.253 20.0091 20.9761C20.037 20.7682 20.1602 20.5561 20.4075 20.1314C20.6544 19.7067 20.778 19.494 20.9454 19.3667C21.1691 19.1965 21.4509 19.1216 21.7296 19.1582C21.857 19.1751 21.9859 19.2267 22.1638 19.3203C22.2915 19.3896 22.4346 19.4256 22.5798 19.4248C22.7251 19.4241 22.8678 19.3867 22.9948 19.3161C23.1194 19.2429 23.2233 19.139 23.2966 19.0144C23.3699 18.8898 23.4102 18.7485 23.4138 18.604C23.4217 18.4045 23.4406 18.2672 23.4901 18.1498C23.5982 17.8913 23.8045 17.6862 24.0637 17.5798C24.2585 17.4998 24.5058 17.4998 25 17.4998ZM26.591 22.763C26.591 23.6351 25.879 24.3419 25 24.3419C24.1216 24.3419 23.409 23.6351 23.409 22.763C23.409 21.8909 24.1211 21.184 25 21.184C25.8784 21.184 26.591 21.8909 26.591 22.763Z" fill="white"/>
</g>
<defs>
<filter id="filter0_d_1_19" x="11" y="15" width="28" height="28" filterUnits="userSpaceOnUse" color-interpolation-filters="sRGB">
<feFlood flood-opacity="0" result="BackgroundImageFix"/>
<feColorMatrix in="SourceAlpha" type="matrix" values="0 0 0 0 0 0 0 0 0 0 0 0 0 0 0 0 0 0 127 0" result="hardAlpha"/>
<feOffset dy="4"/>
<feGaussianBlur stdDeviation="2"/>
<feComposite in2="hardAlpha" operator="out"/>
<feColorMatrix type="matrix" values="0 0 0 0 0 0 0 0 0 0 0 0 0 0 0 0 0 0 0.25 0"/>
<feBlend mode="normal" in2="BackgroundImageFix" result="effect1_dropShadow_1_19"/>
<feBlend mode="normal" in="SourceGraphic" in2="effect1_dropShadow_1_19" result="shape"/>
</filter>
<linearGradient id="paint0_linear_1_19" x1="25" y1="0" x2="25" y2="50" gradientUnits="userSpaceOnUse">
<stop stop-color="#FFCF53"/>
<stop offset="1" stop-color="#FF9900"/>
</linearGradient>
</defs>
</svg>
