<svg width="60" height="60" viewBox="0 0 60 60" fill="none" xmlns="http://www.w3.org/2000/svg">
<circle cx="30" cy="30" r="30" fill="url(#paint0_linear_5_70)"/>
<circle cx="30" cy="30" r="29" stroke="white" stroke-opacity="0.3" stroke-width="2"/>
<g filter="url(#filter0_d_5_70)">
<path d="M20 28.7332C20.0575 25.5183 20.3888 22.3989 21.2777 21.4685C23.1503 19.5085 30.8412 19.8468 32.7138 20.5595C33.3663 20.8079 33.7697 21.1613 34.0185 21.554C33.1411 21.5457 32.2409 21.6032 31.3414 21.7265C27.9803 22.187 24.4573 23.5869 21.951 26.1269C21.1921 26.896 20.5319 27.7643 20 28.7332Z" fill="white"/>
<path fill-rule="evenodd" clip-rule="evenodd" d="M20.2328 35.4603C20.2966 36.1316 20.3657 36.6418 20.4306 36.9204V36.7522C21.1003 39.5589 23.3624 40 28.9276 40C36.9316 40 38.844 38.5064 39.7625 31.5375C40.5047 25.9073 39.656 23.8509 35.0818 23.2686C33.9836 23.1791 32.7924 23.2099 31.5677 23.3777C28.4675 23.8025 25.3206 25.0849 23.1373 27.2975C21.2397 29.2206 20.0232 31.8901 20.2328 35.4603ZM27.5 35C27.5 34.5398 27.8731 34.1667 28.3333 34.1667H35C35.4602 34.1667 35.8333 34.5398 35.8333 35C35.8333 35.4602 35.4602 35.8333 35 35.8333H28.3333C27.8731 35.8333 27.5 35.4602 27.5 35ZM35 30.8333C35.4602 30.8333 35.8333 31.2064 35.8333 31.6667C35.8333 32.1269 35.4602 32.5 35 32.5H31.6667C31.2064 32.5 30.8333 32.1269 30.8333 31.6667C30.8333 31.2064 31.2064 30.8333 31.6667 30.8333H35Z" fill="white"/>
</g>
<defs>
<filter id="filter0_d_5_70" x="16" y="20" width="28" height="28" filterUnits="userSpaceOnUse" color-interpolation-filters="sRGB">
<feFlood flood-opacity="0" result="BackgroundImageFix"/>
<feColorMatrix in="SourceAlpha" type="matrix" values="0 0 0 0 0 0 0 0 0 0 0 0 0 0 0 0 0 0 127 0" result="hardAlpha"/>
<feOffset dy="4"/>
<feGaussianBlur stdDeviation="2"/>
<feComposite in2="hardAlpha" operator="out"/>
<feColorMatrix type="matrix" values="0 0 0 0 0 0 0 0 0 0 0 0 0 0 0 0 0 0 0.25 0"/>
<feBlend mode="normal" in2="BackgroundImageFix" result="effect1_dropShadow_5_70"/>
<feBlend mode="normal" in="SourceGraphic" in2="effect1_dropShadow_5_70" result="shape"/>
</filter>
<linearGradient id="paint0_linear_5_70" x1="30" y1="0" x2="30" y2="60" gradientUnits="userSpaceOnUse">
<stop stop-color="#90DF75"/>
<stop offset="1" stop-color="#62B655"/>
</linearGradient>
</defs>
</svg>
