<svg width="20" height="20" viewBox="0 0 20 20" fill="none" xmlns="http://www.w3.org/2000/svg">
<path fill-rule="evenodd" clip-rule="evenodd" d="M20 10C20 1.765 18.235 0 10 0C1.765 0 -2.07099e-06 1.765 0 10C0 18.235 1.765 20 10 20C18.235 20 20 18.235 20 10ZM14.1667 17.5C14.6269 17.5 15 17.1269 15 16.6667C15 16.2064 14.6269 15.8333 14.1667 15.8333L5.83333 15.8333C5.3731 15.8333 5 16.2064 5 16.6667C5 17.1269 5.3731 17.5 5.83333 17.5H14.1667ZM10 2.49981C10.4942 2.49981 10.7416 2.49981 10.9363 2.57981C11.0647 2.63248 11.1814 2.70993 11.2799 2.80774C11.3783 2.90554 11.4565 3.02178 11.51 3.14981C11.5595 3.26718 11.5784 3.40402 11.5863 3.60402C11.5898 3.7485 11.63 3.88971 11.7032 4.01431C11.7764 4.13891 11.8802 4.24279 12.0047 4.31613C12.1317 4.3868 12.2746 4.42424 12.4199 4.42498C12.5653 4.42571 12.7085 4.38972 12.8363 4.32034C13.0142 4.22665 13.1431 4.17507 13.2705 4.15823C13.5491 4.12164 13.8309 4.19655 14.0547 4.36665C14.2213 4.49403 14.3442 4.70496 14.5896 5.1263L14.5925 5.13139C14.8399 5.55613 14.963 5.76876 14.9909 5.97613C15.0091 6.11332 14.9999 6.25274 14.9638 6.38635C14.9278 6.51996 14.8656 6.6451 14.7809 6.75455C14.7025 6.8556 14.5925 6.94034 14.422 7.04718C14.1715 7.20297 14.0104 7.46928 14.0104 7.76297C14.0104 8.05665 14.1715 8.32297 14.4225 8.47928C14.5925 8.5856 14.7025 8.67034 14.7804 8.77139C14.8652 8.88079 14.9275 9.00592 14.9636 9.13953C14.9997 9.27314 15.009 9.41259 14.9909 9.54981C14.963 9.75771 14.8399 9.96981 14.5925 10.3945C14.3457 10.8193 14.222 11.0319 14.0547 11.1593C13.8315 11.3293 13.5494 11.4045 13.2705 11.3677C13.1431 11.3509 13.0142 11.2993 12.8363 11.2056C12.7086 11.1363 12.5655 11.1004 12.4202 11.1011C12.2749 11.1018 12.1322 11.1392 12.0052 11.2098C11.7489 11.3567 11.5968 11.6282 11.5863 11.9219C11.5784 12.1219 11.5595 12.2588 11.51 12.3761C11.4019 12.6347 11.1955 12.8397 10.9363 12.9461C10.7416 13.0261 10.4942 13.0261 10 13.0261C9.50583 13.0261 9.25847 13.0261 9.06374 12.9461C8.80375 12.8393 8.59743 12.634 8.49007 12.3761C8.4406 12.2588 8.42165 12.1219 8.41376 11.9219C8.4027 11.6282 8.25113 11.3572 7.99535 11.2098C7.86831 11.1391 7.72548 11.1017 7.58011 11.101C7.43474 11.1002 7.29154 11.1362 7.16379 11.2056C6.9859 11.2993 6.85696 11.3509 6.72959 11.3677C6.45065 11.404 6.16855 11.3293 5.9454 11.1593C5.77871 11.0319 5.65587 10.821 5.41048 10.3996L5.40752 10.3945C5.16016 9.96981 5.03701 9.75718 5.00911 9.54981C4.99096 9.41262 5.00016 9.27319 5.03621 9.13958C5.07225 9.00597 5.13442 8.88083 5.21911 8.77139C5.29753 8.67034 5.40752 8.5856 5.57804 8.47876C5.82856 8.32297 5.98961 8.05665 5.98961 7.76297C5.98961 7.46928 5.82856 7.20297 5.57752 7.04665C5.40752 6.94034 5.29753 6.8556 5.21963 6.75455C5.04806 6.53297 4.97227 6.25297 5.00911 5.97613C5.03701 5.76823 5.16016 5.55613 5.40752 5.13139C5.65436 4.70665 5.77804 4.49402 5.9454 4.36665C6.16912 4.19655 6.45094 4.12164 6.72959 4.15823C6.85696 4.17507 6.9859 4.22665 7.16379 4.32034C7.29147 4.38963 7.43458 4.42557 7.57984 4.42483C7.72511 4.4241 7.86785 4.38671 7.99482 4.31613C8.11944 4.24285 8.22332 4.13901 8.29663 4.0144C8.36993 3.88979 8.41025 3.74855 8.41376 3.60402C8.42165 3.40455 8.4406 3.26718 8.49007 3.14981C8.59816 2.89127 8.80451 2.68624 9.06374 2.57981C9.25847 2.49981 9.50583 2.49981 10 2.49981ZM11.591 7.76297C11.591 8.63507 10.879 9.34192 10 9.34192C9.12163 9.34192 8.40902 8.63507 8.40902 7.76297C8.40902 6.89086 9.12111 6.18402 10 6.18402C10.8784 6.18402 11.591 6.89086 11.591 7.76297Z" fill="#869098"/>
</svg>
