<svg width="14" height="14" viewBox="0 0 14 14" fill="none" xmlns="http://www.w3.org/2000/svg">
<path fill-rule="evenodd" clip-rule="evenodd" d="M14 7C14 1.2355 12.7645 0 7 0C1.2355 0 0 1.2355 0 7C0 12.7645 1.2355 14 7 14C12.7645 14 14 12.7645 14 7ZM9.91667 12.25C10.2388 12.25 10.5 11.9888 10.5 11.6667C10.5 11.3445 10.2388 11.0833 9.91666 11.0833H4.08333C3.76117 11.0833 3.5 11.3445 3.5 11.6667C3.5 11.9888 3.76117 12.25 4.08333 12.25L9.91667 12.25ZM7.00002 1.74987C7.34596 1.74987 7.51911 1.74987 7.65542 1.80587C7.74528 1.84274 7.827 1.89695 7.8959 1.96541C7.9648 2.03388 8.01954 2.11524 8.05699 2.20487C8.09162 2.28702 8.10488 2.38281 8.11041 2.52281C8.11283 2.62395 8.14099 2.7228 8.19224 2.81002C8.24349 2.89724 8.31613 2.96995 8.4033 3.02129C8.49222 3.07076 8.5922 3.09697 8.69396 3.09748C8.79572 3.098 8.89596 3.0728 8.98538 3.02423C9.10991 2.95866 9.20017 2.92255 9.28932 2.91076C9.48438 2.88515 9.68165 2.93758 9.83825 3.05666C9.95494 3.14582 10.0409 3.29347 10.2127 3.58842L10.2148 3.59197C10.3879 3.88929 10.4741 4.03813 10.4937 4.18329C10.5064 4.27932 10.4999 4.37692 10.4747 4.47045C10.4495 4.56397 10.4059 4.65157 10.3467 4.72818C10.2918 4.79892 10.2148 4.85823 10.0954 4.93302C9.92004 5.04208 9.80731 5.2285 9.80731 5.43408C9.80731 5.63965 9.92004 5.82608 10.0958 5.9355C10.2148 6.00992 10.2918 6.06923 10.3463 6.13997C10.4056 6.21655 10.4492 6.30414 10.4745 6.39767C10.4998 6.49119 10.5063 6.58881 10.4937 6.68486C10.4741 6.83039 10.3879 6.97886 10.2148 7.27618C10.042 7.5735 9.95541 7.72234 9.83825 7.8115C9.68205 7.9305 9.48458 7.98318 9.28932 7.95739C9.20017 7.9456 9.10991 7.9095 8.98538 7.84392C8.89601 7.79541 8.79583 7.77025 8.69415 7.77077C8.59246 7.77128 8.49254 7.79746 8.40366 7.84686C8.22425 7.94965 8.11778 8.13976 8.11041 8.34534C8.10488 8.48534 8.09162 8.58113 8.05699 8.66328C7.98132 8.84427 7.83688 8.98779 7.65542 9.06228C7.51911 9.11828 7.34596 9.11829 7.00002 9.11829C6.65408 9.11829 6.48093 9.11828 6.34461 9.06228C6.16262 8.9875 6.0182 8.84381 5.94305 8.66328C5.90842 8.58113 5.89515 8.48534 5.88963 8.34534C5.88189 8.13976 5.77579 7.95002 5.59674 7.84686C5.50781 7.79739 5.40783 7.77118 5.30607 7.77067C5.20432 7.77015 5.10407 7.79535 5.01465 7.84392C4.89013 7.9095 4.79987 7.9456 4.71071 7.95739C4.51546 7.98281 4.31799 7.9305 4.16178 7.8115C4.04509 7.72233 3.95911 7.57468 3.78733 7.27973L3.78526 7.27618C3.61211 6.97886 3.5259 6.83002 3.50638 6.68486C3.49367 6.58883 3.50011 6.49123 3.52535 6.39771C3.55058 6.30418 3.59409 6.21658 3.65337 6.13997C3.70827 6.06923 3.78526 6.00992 3.90463 5.93513C4.07999 5.82608 4.19273 5.63965 4.19273 5.43408C4.19273 5.2285 4.07999 5.04208 3.90426 4.93265C3.78526 4.85823 3.70827 4.79892 3.65374 4.72818C3.53364 4.57308 3.48059 4.37708 3.50638 4.18329C3.5259 4.03776 3.61211 3.88929 3.78526 3.59197C3.95805 3.29466 4.04463 3.14581 4.16178 3.05666C4.31838 2.93758 4.51566 2.88515 4.71071 2.91076C4.79987 2.92255 4.89013 2.95866 5.01465 3.02423C5.10403 3.07274 5.2042 3.0979 5.30589 3.09738C5.40758 3.09687 5.50749 3.07069 5.59637 3.02129C5.68361 2.97 5.75632 2.8973 5.80764 2.81008C5.85895 2.72285 5.88717 2.62398 5.88963 2.52281C5.89515 2.38318 5.90842 2.28702 5.94305 2.20487C6.01871 2.02388 6.16316 1.88036 6.34461 1.80587C6.48093 1.74987 6.65408 1.74987 7.00002 1.74987ZM8.11372 5.43408C8.11372 6.04455 7.61526 6.53934 7.00002 6.53934C6.38514 6.53934 5.88631 6.04455 5.88631 5.43408C5.88631 4.8236 6.38477 4.32881 7.00002 4.32881C7.6149 4.32881 8.11372 4.8236 8.11372 5.43408Z" fill="white"/>
</svg>
