<svg width="138" height="40" viewBox="0 0 138 40" fill="none" xmlns="http://www.w3.org/2000/svg">
<path d="M19.1811 12.6723C18.8569 12.6452 18.4485 12.6152 17.9351 12.6152C13.9505 12.6152 11.3291 14.3327 10.074 17.7919L10.5064 13.2878H6.84612C5.7393 13.2965 4.67443 13.7124 3.85475 14.4562C3.03506 15.2001 2.51796 16.2197 2.40215 17.3204L0 39.8225H3.6873C4.79466 39.8145 5.86024 39.3991 6.68055 38.6552C7.50087 37.9113 8.01841 36.8912 8.13429 35.79L9.05609 26.908C9.15859 25.8813 9.36688 24.8681 9.67766 23.8843C9.97624 23.1979 10.4091 22.5783 10.9508 22.0617C11.5416 21.4098 12.2671 20.8942 13.077 20.5505C13.8869 20.2067 14.7617 20.043 15.641 20.0709C16.5476 20.0929 17.4486 20.2209 18.3254 20.4522L20.4662 12.9455C20.0449 12.8244 19.6154 12.7331 19.1811 12.6723Z" fill="#171A22"/>
<path d="M35.5206 11.7188C31.2087 11.7188 27.5514 13.2981 24.5157 16.4059C23.044 17.8761 21.8823 19.6268 21.0998 21.5543C20.3173 23.4818 19.93 25.547 19.9607 27.627C19.9607 31.4134 21.0987 34.3831 23.3748 36.563C25.6507 38.743 28.7435 39.8329 32.7011 39.8329C35.1201 39.8809 37.5217 39.4163 39.7483 38.4696C41.7541 37.5688 43.733 36.0465 45.7117 33.9205L45.8199 33.8125L42.649 31.4403C42.1721 31.067 41.5828 30.8666 40.9772 30.872C40.3717 30.8775 39.7859 31.0886 39.3159 31.4705C38.745 31.9451 38.1431 32.3814 37.5144 32.7765C35.995 33.6773 34.5867 34.1397 33.2596 34.1397C32.4763 34.1681 31.6952 34.0379 30.9634 33.7567C30.2318 33.4753 29.5644 33.049 29.0017 32.5033C27.8637 31.4134 27.3202 29.972 27.3202 28.1734H47.192C47.2363 27.5411 47.3267 26.913 47.4623 26.2938C47.5402 25.7424 47.5852 25.1869 47.5974 24.6303C47.5974 20.6817 46.5135 17.5228 44.3455 15.2048C42.1776 12.8868 39.259 11.7188 35.5206 11.7188ZM27.8217 23.162C28.4223 21.2823 29.3171 19.838 30.5061 18.8292C31.69 17.8173 33.2039 17.2746 34.7608 17.3038C36.4154 17.3038 37.7156 17.8202 38.6374 18.8561C39.5593 19.8921 40.0757 21.3363 40.0757 23.162H27.8217Z" fill="#171A22"/>
<path d="M73.2198 4.03845L71.9887 15.887C70.6616 13.1096 68.2203 11.7463 64.6442 11.7463C60.7677 11.7463 57.4588 13.2987 54.7352 16.4065C52.0118 19.5143 50.6426 23.2707 50.6426 27.6546C50.6426 31.444 51.6185 34.4106 53.5432 36.5636C55.4679 38.7165 58.0983 39.8065 61.4042 39.8065C65.47 39.8065 68.3104 38.3051 69.944 35.3655L69.5655 39.8065H73.2769C75.556 39.8065 77.4806 37.2451 77.7239 34.9572L81.3842 0.00585938H77.6669C76.5595 0.0138067 75.4939 0.429408 74.6736 1.17329C73.8533 1.91716 73.3357 2.93715 73.2198 4.03845ZM69.4514 30.8434C68.8223 31.6128 68.0276 32.2302 67.1265 32.6498C66.2256 33.0692 65.2415 33.2802 64.2478 33.2666C62.4461 33.2666 61.0229 32.696 59.993 31.552C58.9631 30.408 58.4196 28.8286 58.4196 26.8379V25.913C58.6899 23.652 59.4766 21.8264 60.8218 20.4091C61.445 19.7326 62.2045 19.1955 63.05 18.8332C63.8956 18.4709 64.8083 18.2917 65.7281 18.3072C67.4877 18.3072 68.899 18.8778 69.956 20.0489C71.0129 21.2198 71.5564 22.8023 71.5564 24.7359C71.5413 27.1921 70.8628 29.2099 69.4514 30.8434Z" fill="#171A22"/>
<path d="M86.1515 4.03847L82.4102 39.8335H86.1244C87.2364 39.8323 88.3086 39.4196 89.1346 38.6751C89.9606 37.9306 90.482 36.9068 90.5984 35.8009L91.247 29.5643L91.4662 27.4384L91.7094 24.9853L92.0338 21.9614L94.3128 0.00588274H90.6044C89.4932 0.00228769 88.4206 0.413727 87.5968 1.15967C86.7732 1.90561 86.2577 2.93229 86.1515 4.03847Z" fill="#171A22"/>
<path d="M97.9228 15.6932L97.2442 21.9988L96.9169 25.0076L96.6467 27.4337L96.4275 29.5596L95.3164 39.8558H99.0188C100.129 39.8426 101.196 39.4215 102.016 38.6731C102.836 37.9245 103.352 36.9006 103.466 35.7962L105.958 11.6876H102.382C101.273 11.6798 100.201 12.0862 99.3768 12.8271C98.552 13.5681 98.0336 14.5901 97.9228 15.6932Z" fill="#171A22"/>
<path d="M106.29 1.20163C105.446 0.412843 104.329 -0.0177155 103.174 0.000558795C101.92 -0.0175825 100.704 0.428357 99.7595 1.25266C99.3172 1.60031 98.9584 2.04272 98.7095 2.54728C98.4605 3.05183 98.3279 3.6057 98.3212 4.16826C98.3093 4.71384 98.4173 5.2554 98.6379 5.75456C98.8584 6.25372 99.186 6.69834 99.5974 7.05688C100.432 7.84088 101.543 8.26198 102.687 8.22789C103.96 8.2698 105.204 7.84233 106.182 7.02681C106.626 6.68185 106.984 6.23944 107.228 5.73381C107.473 5.22818 107.598 4.67295 107.593 4.11122C107.6 3.56084 107.486 3.01566 107.261 2.51333C107.036 2.01099 106.705 1.56347 106.29 1.20163Z" fill="#171A22"/>
<path fill-rule="evenodd" clip-rule="evenodd" d="M128.319 12.5053C126.926 12.1238 125.487 11.9369 124.043 11.9498C119.924 11.9498 116.371 13.286 113.417 15.9013C111.489 17.5835 110.024 19.7303 109.159 22.1379C108.552 23.8426 108.247 25.6401 108.258 27.4496V27.5307C108.258 31.236 109.459 34.2597 111.807 36.5388C114.155 38.8178 117.284 40.0009 121.116 40.0009C125.56 40.0009 129.309 38.4996 132.364 35.4969C135.429 32.4942 136.946 28.7678 136.946 24.3539C136.96 22.9628 136.766 21.5773 136.372 20.2433C135.604 20.5852 134.772 20.7612 133.932 20.7597C132.947 20.7542 131.979 20.5094 131.111 20.0462C130.242 19.5829 129.5 18.9152 128.947 18.1008C128.395 17.2864 128.049 16.3497 127.939 15.3717C127.83 14.3936 127.96 13.4036 128.319 12.4873V12.5053ZM121.737 33.4581C122.779 33.4753 123.812 33.2678 124.767 32.8495C125.721 32.4314 126.574 31.8124 127.268 31.0348C128.787 29.4254 129.517 27.4106 129.517 25.0145C129.517 23.1078 128.917 21.5555 127.757 20.3544C126.644 19.1292 125.127 18.5318 123.283 18.5318C122.325 18.5244 121.374 18.7064 120.486 19.0671C119.598 19.4278 118.789 19.9601 118.107 20.6336C116.62 22.0655 115.696 23.9833 115.504 26.0384V26.9662C115.504 28.8729 116.074 30.4253 117.212 31.6504C118.35 32.8755 119.866 33.4581 121.737 33.4581Z" fill="#171A22"/>
<path d="M137.38 14.721C137.376 15.4012 137.171 16.0649 136.79 16.6285C136.408 17.1922 135.87 17.6304 135.24 17.8879C134.61 18.1453 133.918 18.2105 133.251 18.0753C132.585 17.94 131.973 17.6103 131.494 17.1278C131.014 16.6453 130.688 16.0317 130.557 15.3641C130.426 14.6966 130.495 14.0051 130.756 13.3771C131.018 12.749 131.459 12.2124 132.025 11.8348C132.591 11.4573 133.256 11.2559 133.936 11.2559C134.39 11.257 134.839 11.3476 135.258 11.5224C135.676 11.6972 136.056 11.9529 136.376 12.2747C136.696 12.5965 136.95 12.9782 137.122 13.3979C137.294 13.8177 137.382 14.2673 137.38 14.721Z" fill="#FFB800"/>
</svg>
