<svg width="19" height="18" viewBox="0 0 19 18" fill="none" xmlns="http://www.w3.org/2000/svg">
<path d="M0.805357 0.0573257L17.9388 8.49964C18.0322 8.54568 18.1109 8.61696 18.1659 8.7054C18.2209 8.79385 18.2501 8.89592 18.2501 9.00008C18.2501 9.10424 18.2209 9.20632 18.1659 9.29477C18.1109 9.38321 18.0322 9.45449 17.9388 9.50053L0.804241 17.9428C0.708249 17.99 0.600726 18.0086 0.494478 17.9963C0.38823 17.9841 0.287734 17.9416 0.20496 17.8739C0.122186 17.8062 0.0606214 17.7161 0.0275993 17.6144C-0.00542277 17.5126 -0.00851092 17.4036 0.0187024 17.3001L1.71587 10.8897C1.74338 10.786 1.80022 10.6924 1.87959 10.6202C1.95895 10.5479 2.05746 10.5001 2.16331 10.4825L9.84129 9.2026C9.88704 9.19503 9.93018 9.17616 9.96681 9.14772C10.0034 9.11927 10.0324 9.08215 10.0511 9.03969L10.0711 8.97275C10.0816 8.91069 10.0707 8.84694 10.0403 8.79185C10.0099 8.73675 9.96181 8.69354 9.90377 8.66924L9.84129 8.65139L2.12091 7.36485C2.01526 7.34699 1.91699 7.29908 1.83784 7.22686C1.75869 7.15464 1.70201 7.06115 1.67458 6.95757L0.0187024 0.701155C-0.008794 0.597651 -0.00591948 0.48842 0.0269829 0.386505C0.0598853 0.284591 0.121425 0.194299 0.204254 0.126413C0.287082 0.0585263 0.3877 0.0159133 0.494091 0.00366262C0.600482 -0.00858808 0.708151 0.0100412 0.804241 0.0573257H0.805357Z" fill="white"/>
</svg>
