<svg width="16" height="16" viewBox="0 0 16 16" fill="none" xmlns="http://www.w3.org/2000/svg">
<path fill-rule="evenodd" clip-rule="evenodd" d="M9.68357 0.121722C9.38616 0.000122035 9.00837 0.00012207 8.2536 0.00012207C7.49882 0.00012207 7.12103 0.000122035 6.82363 0.121722C6.42771 0.283491 6.11256 0.595134 5.94748 0.988122C5.87192 1.16652 5.84298 1.37532 5.83092 1.67852C5.82556 1.8982 5.76399 2.1129 5.65204 2.3023C5.54008 2.4917 5.38143 2.64955 5.1911 2.76092C4.99717 2.8682 4.77918 2.92504 4.55732 2.92616C4.33545 2.92728 4.11689 2.87264 3.92189 2.76732C3.6502 2.62492 3.45327 2.54652 3.25875 2.52092C2.83318 2.46531 2.40275 2.57916 2.06108 2.83772C1.80547 3.03132 1.61657 3.35452 1.23959 4.00012C0.861798 4.64572 0.673708 4.96812 0.631106 5.28412C0.574839 5.70492 0.690587 6.13052 0.952628 6.46732C1.07159 6.62092 1.23959 6.74972 1.49922 6.91132C1.88263 7.14892 2.1286 7.55372 2.1286 8.00012C2.1286 8.44652 1.88263 8.85132 1.50002 9.08812C1.23959 9.25052 1.07159 9.37932 0.951824 9.53292C0.822478 9.69928 0.727538 9.88949 0.672489 10.0926C0.617441 10.2957 0.603375 10.5076 0.631106 10.7161C0.673708 11.0313 0.861798 11.3545 1.23959 12.0001C1.61738 12.6457 1.80547 12.9681 2.06108 13.1625C2.40189 13.4209 2.83273 13.5345 3.25875 13.4793C3.45327 13.4537 3.6502 13.3753 3.92189 13.2329C4.11699 13.1275 4.3357 13.0727 4.55772 13.0739C4.77974 13.075 4.99788 13.1319 5.1919 13.2393C5.58255 13.4633 5.81405 13.8753 5.83092 14.3217C5.84298 14.6257 5.87192 14.8337 5.94748 15.0121C6.11145 15.4041 6.42654 15.7161 6.82363 15.8785C7.12103 16.0001 7.49882 16.0001 8.2536 16.0001C9.00837 16.0001 9.38616 16.0001 9.68357 15.8785C10.0795 15.7168 10.3946 15.4051 10.5597 15.0121C10.6353 14.8337 10.6642 14.6257 10.6763 14.3217C10.6923 13.8753 10.9246 13.4625 11.3161 13.2393C11.51 13.132 11.728 13.0752 11.9499 13.0741C12.1717 13.073 12.3903 13.1276 12.5853 13.2329C12.857 13.3753 13.0539 13.4537 13.2484 13.4793C13.6745 13.5353 14.1053 13.4209 14.4461 13.1625C14.7017 12.9689 14.8906 12.6457 15.2676 12.0001C15.6454 11.3545 15.8335 11.0321 15.8761 10.7161C15.9037 10.5075 15.8895 10.2956 15.8343 10.0925C15.7791 9.8894 15.684 9.69922 15.5546 9.53292C15.4356 9.37932 15.2676 9.25052 15.008 9.08892C14.6246 8.85132 14.3786 8.44652 14.3786 8.00012C14.3786 7.55372 14.6246 7.14892 15.0072 6.91212C15.2676 6.74972 15.4356 6.62092 15.5554 6.46732C15.6847 6.30097 15.7797 6.11075 15.8347 5.90767C15.8898 5.70458 15.9038 5.49265 15.8761 5.28412C15.8335 4.96892 15.6454 4.64572 15.2676 4.00012C14.8898 3.35452 14.7017 3.03212 14.4461 2.83772C14.1044 2.57916 13.674 2.46531 13.2484 2.52092C13.0539 2.54652 12.857 2.62492 12.5853 2.76732C12.3902 2.87279 12.1715 2.9275 11.9495 2.92638C11.7275 2.92526 11.5093 2.86835 11.3153 2.76092C11.1251 2.64945 10.9666 2.49156 10.8548 2.30216C10.743 2.11277 10.6815 1.89813 10.6763 1.67852C10.6642 1.37452 10.6353 1.16652 10.5597 0.988122C10.478 0.793511 10.3586 0.616828 10.2082 0.468168C10.0579 0.319508 9.87963 0.201784 9.68357 0.121722ZM8.2536 10.4001C9.59595 10.4001 10.6835 9.32572 10.6835 8.00012C10.6835 6.67452 9.59515 5.60012 8.2536 5.60012C6.91124 5.60012 5.82369 6.67452 5.82369 8.00012C5.82369 9.32572 6.91204 10.4001 8.2536 10.4001Z" fill="#15141A"/>
</svg>
