<svg width="14" height="14" viewBox="0 0 14 14" fill="none" xmlns="http://www.w3.org/2000/svg">
<path d="M13.6724 5.65674L12.5603 5.24805C12.458 4.92383 12.3276 4.60889 12.1702 4.30713L12.668 3.23193C12.7561 3.04199 12.7163 2.81689 12.5679 2.66846L11.3315 1.43213C11.1838 1.28418 10.9587 1.24365 10.7681 1.33203L9.69287 1.82959C9.39136 1.67236 9.07642 1.54199 8.75171 1.43994L8.34351 0.327637C8.27124 0.130859 8.08374 0 7.87402 0H6.12598C5.91626 0 5.72876 0.130859 5.65649 0.327637L5.24829 1.43994C4.92358 1.54199 4.60864 1.67236 4.30713 1.82959L3.23193 1.33203C3.04199 1.24365 2.81641 1.28418 2.66846 1.43213L1.43213 2.66846C1.28369 2.81689 1.2439 3.04199 1.33203 3.23193L1.82983 4.30713C1.67236 4.60889 1.54199 4.92383 1.4397 5.24805L0.327637 5.65674C0.130859 5.729 0 5.9165 0 6.12598V7.87402C0 8.0835 0.130859 8.271 0.327637 8.34326L1.4397 8.75195C1.54199 9.07617 1.67236 9.39111 1.82983 9.69287L1.33203 10.7681C1.2439 10.958 1.28369 11.1831 1.43213 11.3315L2.66846 12.5679C2.81616 12.7158 3.0415 12.7568 3.23193 12.668L4.30713 12.1704C4.60864 12.3276 4.92358 12.458 5.24829 12.5601L5.65649 13.6724C5.72876 13.8691 5.91626 14 6.12598 14H7.87402C8.08374 14 8.27124 13.8691 8.34351 13.6724L8.75171 12.5601C9.07642 12.458 9.39136 12.3276 9.69287 12.1704L10.7681 12.668C10.9578 12.7563 11.1833 12.7158 11.3315 12.5679L12.5679 11.3315C12.7163 11.1831 12.7561 10.958 12.668 10.7681L12.1702 9.69287C12.3276 9.39111 12.458 9.07617 12.5603 8.75195L13.6724 8.34326C13.8691 8.271 14 8.0835 14 7.87402V6.12598C14 5.9165 13.8691 5.729 13.6724 5.65674ZM10 7C10 8.6543 8.6543 10 7 10C5.3457 10 4 8.6543 4 7C4 5.3457 5.3457 4 7 4C8.6543 4 10 5.3457 10 7Z" fill="white"/>
</svg>
