<svg width="314" height="96" viewBox="0 0 314 96" fill="none" xmlns="http://www.w3.org/2000/svg">
<path d="M0.793 24.535V17.52H31.293V24.535H19.703V59H12.383V24.535H0.793ZM61.8764 51.985V59H37.8424V17.52H61.2664V24.535H45.1624V34.478H59.4364V41.493H45.1624V51.985H61.8764ZM98.9725 63.453V71.078C95.8005 71.078 93.2588 70.712 91.3475 69.98C89.4362 69.248 87.9315 68.1907 86.8335 66.808C85.7762 65.4253 84.9222 63.7377 84.2715 61.745L83.5395 59.61C78.7002 59.4473 75.0198 57.8613 72.4985 54.852C70.0178 51.8427 68.7775 47.7557 68.7775 42.591V33.868C68.7775 28.5813 70.0788 24.4333 72.6815 21.424C75.3248 18.4147 79.2085 16.91 84.3325 16.91C89.4158 16.91 93.2792 18.4147 95.9225 21.424C98.5658 24.4333 99.8875 28.5813 99.8875 33.868V42.591C99.8875 46.6983 99.0742 50.155 97.4475 52.961C95.8615 55.7263 93.5028 57.6377 90.3715 58.695C90.7375 59.9963 91.2458 60.9927 91.8965 61.684C92.5472 62.3753 93.4215 62.843 94.5195 63.087C95.6582 63.331 97.1425 63.453 98.9725 63.453ZM92.3845 33.868C92.3845 30.5333 91.7338 28.0323 90.4325 26.365C89.1312 24.657 87.0978 23.803 84.3325 23.803C81.5672 23.803 79.5338 24.657 78.2325 26.365C76.9312 28.0323 76.2805 30.5333 76.2805 33.868V42.591C76.2805 45.9257 76.9312 48.447 78.2325 50.155C79.5338 51.863 81.5672 52.717 84.3325 52.717C87.0978 52.717 89.1312 51.863 90.4325 50.155C91.7338 48.447 92.3845 45.9257 92.3845 42.591V33.868ZM109.565 59V17.52H116.275C119.488 21.7087 122.538 26.1413 125.425 30.818C128.312 35.454 130.935 40.2323 133.294 45.153L132.745 32.77V17.52H139.76V59H133.05C130.447 53.876 127.743 48.7317 124.937 43.567C122.172 38.3617 119.223 33.4613 116.092 28.866L116.58 43.14V59H109.565ZM180.546 33.868V42.591C180.546 47.8777 179.224 52.046 176.581 55.096C173.937 58.1053 170.074 59.61 164.991 59.61C159.867 59.61 155.983 58.1053 153.34 55.096C150.737 52.046 149.436 47.8777 149.436 42.591V33.868C149.436 28.5813 150.737 24.4333 153.34 21.424C155.983 18.4147 159.867 16.91 164.991 16.91C170.074 16.91 173.937 18.4147 176.581 21.424C179.224 24.4333 180.546 28.5813 180.546 33.868ZM173.043 33.868C173.043 30.5333 172.392 28.0323 171.091 26.365C169.789 24.657 167.756 23.803 164.991 23.803C162.225 23.803 160.192 24.657 158.891 26.365C157.589 28.0323 156.939 30.5333 156.939 33.868V42.591C156.939 45.9257 157.589 48.447 158.891 50.155C160.192 51.863 162.225 52.717 164.991 52.717C167.756 52.717 169.789 51.863 171.091 50.155C172.392 48.447 173.043 45.9257 173.043 42.591V33.868ZM198.214 17.52L209.804 45.885L221.333 17.52H229.324V59H222.309V43.14L223.224 28.622L212.915 54.12H206.388L196.323 28.561L197.238 43.14V59H190.223V17.52H198.214ZM262.88 59L260.318 50.887H246.105L243.543 59H236.284L250.131 17.52H256.597L270.505 59H262.88ZM250.07 38.199L248.179 44.177H258.183L256.292 38.199L253.242 27.707L250.07 38.199ZM277.434 59V17.52H284.144C287.357 21.7087 290.407 26.1413 293.294 30.818C296.182 35.454 298.805 40.2323 301.163 45.153L300.614 32.77V17.52H307.629V59H300.919C298.317 53.876 295.612 48.7317 292.806 43.567C290.041 38.3617 287.093 33.4613 283.961 28.866L284.449 43.14V59H277.434Z" fill="black"/>
<path d="M114.816 79.36L116.356 87.34L121.144 70.96H122.908L127.724 87.396L129.264 79.36L131.056 70.96H132.764L128.648 90H126.8L122.012 73.564L117.168 90H115.292L111.204 70.96H113.024L114.816 79.36ZM147.56 88.348V90H137.2V70.96H147.28V72.612H139.02V79.528H146.44V81.18H139.02V88.348H147.56ZM151.993 90V70.96H157.453C159.096 70.96 160.356 71.3987 161.233 72.276C162.129 73.1533 162.577 74.3293 162.577 75.804V76.308C162.577 77.204 162.372 77.988 161.961 78.66C161.551 79.3133 160.944 79.8173 160.141 80.172C161.205 80.4707 162.017 80.9933 162.577 81.74C163.137 82.4867 163.417 83.4013 163.417 84.484V84.988C163.417 86.5 162.96 87.7133 162.045 88.628C161.131 89.5427 159.833 90 158.153 90H151.993ZM157.453 72.612H153.813V79.5H157.453C158.517 79.5 159.32 79.22 159.861 78.66C160.403 78.0813 160.673 77.2973 160.673 76.308V75.804C160.673 74.8147 160.403 74.04 159.861 73.48C159.32 72.9013 158.517 72.612 157.453 72.612ZM158.153 81.152H153.813V88.348H158.153C159.255 88.348 160.085 88.0493 160.645 87.452C161.224 86.8547 161.513 86.0333 161.513 84.988V84.484C161.513 83.4573 161.224 82.6453 160.645 82.048C160.085 81.4507 159.255 81.152 158.153 81.152ZM178.521 88.684C179.772 88.684 180.743 88.3947 181.433 87.816C182.124 87.2187 182.469 86.36 182.469 85.24C182.469 84.3067 182.217 83.504 181.713 82.832C181.228 82.1413 180.435 81.6467 179.333 81.348L177.093 80.732C175.619 80.3213 174.555 79.6867 173.901 78.828C173.248 77.9693 172.921 76.9333 172.921 75.72C172.921 74.824 173.099 73.9933 173.453 73.228C173.808 72.4627 174.387 71.8467 175.189 71.38C176.011 70.9133 177.121 70.68 178.521 70.68C179.324 70.68 180.173 70.7827 181.069 70.988C181.984 71.1747 182.889 71.4827 183.785 71.912L183.169 73.48C182.273 73.0507 181.443 72.7427 180.677 72.556C179.912 72.3693 179.193 72.276 178.521 72.276C177.327 72.276 176.403 72.5373 175.749 73.06C175.096 73.5827 174.769 74.4227 174.769 75.58C174.769 76.3827 174.984 77.0827 175.413 77.68C175.843 78.2587 176.627 78.7067 177.765 79.024L180.005 79.64C181.443 80.032 182.516 80.6853 183.225 81.6C183.953 82.5147 184.317 83.6533 184.317 85.016C184.317 86.5653 183.86 87.8347 182.945 88.824C182.049 89.7947 180.575 90.28 178.521 90.28C177.644 90.28 176.711 90.1773 175.721 89.972C174.732 89.7667 173.743 89.44 172.753 88.992L173.341 87.452C174.293 87.9 175.18 88.2173 176.001 88.404C176.823 88.5907 177.663 88.684 178.521 88.684ZM201.426 78.324V82.608C201.426 84.1573 201.165 85.5107 200.642 86.668C200.119 87.8067 199.354 88.6933 198.346 89.328C197.357 89.9627 196.143 90.28 194.706 90.28C192.559 90.28 190.898 89.58 189.722 88.18C188.565 86.78 187.986 84.9227 187.986 82.608V78.324C187.986 76.7747 188.247 75.4307 188.77 74.292C189.293 73.1533 190.058 72.2667 191.066 71.632C192.074 70.9973 193.287 70.68 194.706 70.68C196.125 70.68 197.329 70.9973 198.318 71.632C199.326 72.2667 200.091 73.1533 200.614 74.292C201.155 75.4307 201.426 76.7747 201.426 78.324ZM199.522 78.324C199.522 76.4387 199.102 74.9733 198.262 73.928C197.441 72.864 196.255 72.332 194.706 72.332C193.175 72.332 191.99 72.864 191.15 73.928C190.31 74.9733 189.89 76.4387 189.89 78.324V82.608C189.89 84.4747 190.31 85.9493 191.15 87.032C191.99 88.096 193.175 88.628 194.706 88.628C196.255 88.628 197.441 88.096 198.262 87.032C199.102 85.9493 199.522 84.4747 199.522 82.608V78.324ZM217.116 88.348V90H207.064V70.96H208.884V88.348H217.116ZM220.016 70.96H221.92V83.168C221.92 84.8667 222.265 86.2013 222.956 87.172C223.665 88.1427 224.767 88.628 226.26 88.628C227.772 88.628 228.873 88.1427 229.564 87.172C230.255 86.2013 230.6 84.8667 230.6 83.168V70.96H232.504V83.168C232.504 85.4267 231.981 87.1813 230.936 88.432C229.909 89.664 228.351 90.28 226.26 90.28C224.169 90.28 222.601 89.664 221.556 88.432C220.529 87.1813 220.016 85.4267 220.016 83.168V70.96ZM235.735 72.612V70.96H248.979V72.612H243.267V90H241.447V72.612H235.735ZM254.384 90H252.564V70.96H254.384V90ZM273.45 78.324V82.608C273.45 84.1573 273.188 85.5107 272.666 86.668C272.143 87.8067 271.378 88.6933 270.37 89.328C269.38 89.9627 268.167 90.28 266.73 90.28C264.583 90.28 262.922 89.58 261.746 88.18C260.588 86.78 260.01 84.9227 260.01 82.608V78.324C260.01 76.7747 260.271 75.4307 260.794 74.292C261.316 73.1533 262.082 72.2667 263.09 71.632C264.098 70.9973 265.311 70.68 266.73 70.68C268.148 70.68 269.352 70.9973 270.342 71.632C271.35 72.2667 272.115 73.1533 272.638 74.292C273.179 75.4307 273.45 76.7747 273.45 78.324ZM271.546 78.324C271.546 76.4387 271.126 74.9733 270.286 73.928C269.464 72.864 268.279 72.332 266.73 72.332C265.199 72.332 264.014 72.864 263.174 73.928C262.334 74.9733 261.914 76.4387 261.914 78.324V82.608C261.914 84.4747 262.334 85.9493 263.174 87.032C264.014 88.096 265.199 88.628 266.73 88.628C268.279 88.628 269.464 88.096 270.286 87.032C271.126 85.9493 271.546 84.4747 271.546 82.608V78.324ZM279.087 90V70.96H281.271C282.485 72.7893 283.614 74.5907 284.659 76.364C285.723 78.1187 286.741 79.9107 287.711 81.74C288.682 83.5693 289.625 85.4827 290.539 87.48L290.287 79.136V70.96H292.107V90H289.923C288.523 86.9947 287.086 84.148 285.611 81.46C284.155 78.7533 282.55 76.0373 280.795 73.312L280.907 81.852V90H279.087ZM302.252 88.684C303.503 88.684 304.473 88.3947 305.164 87.816C305.855 87.2187 306.2 86.36 306.2 85.24C306.2 84.3067 305.948 83.504 305.444 82.832C304.959 82.1413 304.165 81.6467 303.064 81.348L300.824 80.732C299.349 80.3213 298.285 79.6867 297.632 78.828C296.979 77.9693 296.652 76.9333 296.652 75.72C296.652 74.824 296.829 73.9933 297.184 73.228C297.539 72.4627 298.117 71.8467 298.92 71.38C299.741 70.9133 300.852 70.68 302.252 70.68C303.055 70.68 303.904 70.7827 304.8 70.988C305.715 71.1747 306.62 71.4827 307.516 71.912L306.9 73.48C306.004 73.0507 305.173 72.7427 304.408 72.556C303.643 72.3693 302.924 72.276 302.252 72.276C301.057 72.276 300.133 72.5373 299.48 73.06C298.827 73.5827 298.5 74.4227 298.5 75.58C298.5 76.3827 298.715 77.0827 299.144 77.68C299.573 78.2587 300.357 78.7067 301.496 79.024L303.736 79.64C305.173 80.032 306.247 80.6853 306.956 81.6C307.684 82.5147 308.048 83.6533 308.048 85.016C308.048 86.5653 307.591 87.8347 306.676 88.824C305.78 89.7947 304.305 90.28 302.252 90.28C301.375 90.28 300.441 90.1773 299.452 89.972C298.463 89.7667 297.473 89.44 296.484 88.992L297.072 87.452C298.024 87.9 298.911 88.2173 299.732 88.404C300.553 88.5907 301.393 88.684 302.252 88.684Z" fill="black"/>
</svg>
