<svg width="60" height="60" viewBox="0 0 60 60" fill="none" xmlns="http://www.w3.org/2000/svg">
<circle cx="30" cy="30" r="30" fill="url(#paint0_linear_5_62)"/>
<circle cx="30" cy="30" r="29" stroke="white" stroke-opacity="0.3" stroke-width="2"/>
<g filter="url(#filter0_d_5_62)">
<path d="M30.2 30C26.7913 30 24.0286 27.3141 24.0286 24C24.0286 20.6859 26.7913 18 30.2 18C33.6088 18 36.3714 20.6859 36.3714 24C36.3714 27.3141 33.6088 30 30.2 30ZM25.88 31.5H26.6852C27.7555 31.9781 28.9464 32.25 30.2 32.25C31.4536 32.25 32.6396 31.9781 33.7148 31.5H34.52C38.0975 31.5 41 34.3219 41 37.8V39.75C41 40.9922 39.9634 42 38.6857 42H21.7143C20.4366 42 19.4 40.9922 19.4 39.75V37.8C19.4 34.3219 22.3025 31.5 25.88 31.5Z" fill="white"/>
</g>
<defs>
<filter id="filter0_d_5_62" x="15.4" y="18" width="29.6" height="32" filterUnits="userSpaceOnUse" color-interpolation-filters="sRGB">
<feFlood flood-opacity="0" result="BackgroundImageFix"/>
<feColorMatrix in="SourceAlpha" type="matrix" values="0 0 0 0 0 0 0 0 0 0 0 0 0 0 0 0 0 0 127 0" result="hardAlpha"/>
<feOffset dy="4"/>
<feGaussianBlur stdDeviation="2"/>
<feComposite in2="hardAlpha" operator="out"/>
<feColorMatrix type="matrix" values="0 0 0 0 0 0 0 0 0 0 0 0 0 0 0 0 0 0 0.25 0"/>
<feBlend mode="normal" in2="BackgroundImageFix" result="effect1_dropShadow_5_62"/>
<feBlend mode="normal" in="SourceGraphic" in2="effect1_dropShadow_5_62" result="shape"/>
</filter>
<linearGradient id="paint0_linear_5_62" x1="30" y1="0" x2="30" y2="60" gradientUnits="userSpaceOnUse">
<stop stop-color="#FF7F7E"/>
<stop offset="1" stop-color="#FE1F1E"/>
</linearGradient>
</defs>
</svg>
