<svg width="12" height="8" viewBox="0 0 12 8" fill="none" xmlns="http://www.w3.org/2000/svg">
<path d="M11.903 3.73134C10.6455 1.40672 8.4403 0 6 0C3.5597 0 1.35075 1.40672 0.104478 3.73134L0 3.90672L0.0970149 4.08582C1.35448 6.41045 3.5597 7.81716 6 7.81716C8.4403 7.81716 10.6493 6.4291 11.903 4.08582L12 3.90672L11.903 3.73134ZM6 7.05224C3.89925 7.05224 1.97015 5.8806 0.850746 3.90672C1.97015 1.93284 3.89925 0.761194 6 0.761194C8.10075 0.761194 10.0075 1.93657 11.1455 3.90672C10.0075 5.8806 8.09702 7.05224 6 7.05224Z" fill="#1F1F1F"/>
<path d="M6.10853 6.47756C7.52221 6.47756 8.66823 5.33154 8.66823 3.91786C8.66823 2.50417 7.52221 1.35815 6.10853 1.35815C4.69485 1.35815 3.54883 2.50417 3.54883 3.91786C3.54883 5.33154 4.69485 6.47756 6.10853 6.47756Z" fill="#1F1F1F"/>
</svg>
