<svg width="17" height="17" viewBox="0 0 17 17" fill="none" xmlns="http://www.w3.org/2000/svg">
<path d="M12.7399 2.26621L14.7334 4.2587L12.7399 2.26621ZM14.0218 0.510901L8.63167 5.90107C8.35316 6.17919 8.16321 6.53354 8.08578 6.91944L7.58789 9.4117L10.0802 8.91287C10.466 8.83569 10.8199 8.64651 11.0985 8.36792L16.4887 2.97775C16.6507 2.81577 16.7791 2.62348 16.8668 2.41185C16.9545 2.20022 16.9996 1.97339 16.9996 1.74433C16.9996 1.51526 16.9545 1.28843 16.8668 1.0768C16.7791 0.86517 16.6507 0.672877 16.4887 0.510901C16.3267 0.348926 16.1344 0.220439 15.9228 0.132779C15.7112 0.0451183 15.4843 -2.41362e-09 15.2553 0C15.0262 2.41362e-09 14.7994 0.0451183 14.5877 0.132779C14.3761 0.220439 14.1838 0.348926 14.0218 0.510901Z" fill="white"/>
<path d="M15.1178 11.2947V14.1182C15.1178 14.6175 14.9195 15.0963 14.5665 15.4493C14.2134 15.8023 13.7347 16.0006 13.2354 16.0006H2.88237C2.38314 16.0006 1.90435 15.8023 1.55133 15.4493C1.19832 15.0963 1 14.6175 1 14.1182V3.76518C1 3.26595 1.19832 2.78716 1.55133 2.43415C1.90435 2.08113 2.38314 1.88281 2.88237 1.88281H5.70593" stroke="white" stroke-width="2" stroke-linecap="round" stroke-linejoin="round"/>
</svg>
